<?xml version="1.0" standalone="no"?><!DOCTYPE svg PUBLIC "-//W3C//DTD SVG 1.1//EN" "http://www.w3.org/Graphics/SVG/1.1/DTD/svg11.dtd"><svg t="1665553676301" class="icon" viewBox="0 0 1024 1024" version="1.1" xmlns="http://www.w3.org/2000/svg" p-id="2640" width="48" height="48" xmlns:xlink="http://www.w3.org/1999/xlink"><path d="M116 389.283c0-23.02 24.94-37.404 44.885-25.889L485.39 550.74a29.895 29.895 0 0 1 14.952 25.888v355.427c0 23.402-25.688 37.732-45.621 25.45L130.216 757.56A29.894 29.894 0 0 1 116 732.11z m794-9.2V722.91a29.894 29.894 0 0 1-14.216 25.45L571.279 948.305c-19.933 12.281-45.621-2.048-45.621-25.45V567.428c0-10.679 5.7-20.547 14.952-25.889l324.505-187.344C885.06 342.679 910 357.064 910 380.083z m-734.162 61.002v274.334l264.666 163.075v-284.61l-264.666-152.8z m674.324-9.2l-264.666 152.8v284.61l264.666-163.076V431.885zM521.884 68.565L875.84 258.767c20.497 11.015 21.115 40.17 1.103 52.043L522.987 520.787a29.936 29.936 0 0 1-30.589-0.026l-352.59-209.978c-19.954-11.883-19.336-40.967 1.105-51.994l352.59-190.2a29.937 29.937 0 0 1 28.381-0.023z m-14.14 60.293L215.728 286.384l292.017 173.905L800.89 286.384 507.743 128.858z" fill="currentColor" p-id="2641"></path></svg>
