<svg xmlns="http://www.w3.org/2000/svg" viewBox="0 0 24 24" class="design-iconfont">
  <g fill="none" fill-rule="evenodd">
    <path d="M5,2 L19,2 C20.1045695,2 21,2.8954305 21,4 L21,20 C21,21.1045695 20.1045695,22 19,22 L5.5,22 C4.11928813,22 3,20.8807119 3,19.5 L3,4 C3,2.8954305 3.8954305,2 5,2 Z" stroke="currentColor" stroke-width="2"/>
    <rect fill="currentColor" x="8" y="6" width="8" height="2" rx="1"/>
    <rect fill="currentColor" x="8" y="11" width="8" height="2" rx="1"/>
    <path d="M5.5,17 L21,17 L21,17 L21,20 C21,21.1045695 20.1045695,22 19,22 L5.5,22 C4.11928813,22 3,20.8807119 3,19.5 C3,18.1192881 4.11928813,17 5.5,17 Z" stroke="currentColor" stroke-width="2"/>
  </g>
</svg>
