<?xml version="1.0" encoding="UTF-8"?>
<svg width="24px" height="24px" viewBox="0 0 24 24" version="1.1" xmlns="http://www.w3.org/2000/svg" xmlns:xlink="http://www.w3.org/1999/xlink">
    <title>图标/24pt/教育局/选中</title>
    <g id="控件" stroke="currentColor" stroke-width="1" fill="none" fill-rule="evenodd">
        <g id="编组" fill="currentColor">
            <rect id="矩形" x="2" y="20" width="20" height="1" rx="0.5"></rect>
            <path d="M14,3 C15.1045695,3 16,3.8954305 16,5 L16,20 L4,20 L4,5 C4,3.8954305 4.8954305,3 6,3 L14,3 Z M9,14 L6,14 L6,17 L9,17 L9,14 Z M14,14 L11,14 L11,17 L14,17 L14,14 Z M9,7 L6,7 L6,10 L9,10 L9,7 Z M14,7 L11,7 L11,10 L14,10 L14,7 Z" id="形状结合"></path>
            <path d="M17,9 L18,9 C19.1045695,9 20,9.8954305 20,11 L20,20 L20,20 L17,20 L17,9 Z" id="矩形备份-2"></path>
        </g>
    </g>
</svg>
