<svg xmlns="http://www.w3.org/2000/svg" viewBox="0 0 14 14" class="design-iconfont">
  <g fill="currentColor" fill-rule="evenodd">
    <path d="M7,1 C9.76142375,1 12,3.23857625 12,6 L12,9.012959 L12,9.012959 L13,11 L1,11 L2,9.02913887 L2,6 C2,3.23857625 4.23857625,1 7,1 Z" transform="translate(-.0008)"/>
    <path d="M7 0A1 1 0 1 0 7 2A1 1 0 1 0 7 0Z" transform="translate(-.0008)"/>
    <path d="M9,12 C9,13.1045695 8.1045695,14 7,14 C5.8954305,14 5,13.1045695 5,12 L5,12 Z" transform="translate(-.0008)"/>
  </g>
</svg>
