<svg xmlns="http://www.w3.org/2000/svg" viewBox="0 0 14 14" class="design-iconfont">
  <path d="M12,1 C13.1045695,1 14,1.8954305 14,3 L14,11 C14,12.1045695 13.1045695,13 12,13 L2,13 C0.8954305,13 1.3527075e-16,12.1045695 0,11 L0,3 C-1.3527075e-16,1.8954305 0.8954305,1 2,1 L12,1 Z M8.5,3 C8.25454011,3 8.05039163,3.17687516 8.00805567,3.41012437 L8,3.5 L8,10.5 C8,10.7761424 8.22385763,11 8.5,11 C8.74545989,11 8.94960837,10.8231248 8.99194433,10.5898756 L9,10.5 L9,3.5 C9,3.22385763 8.77614237,3 8.5,3 Z M11.5,3 C11.2545401,3 11.0503916,3.17687516 11.0080557,3.41012437 L11,3.5 L11,10.5 C11,10.7761424 11.2238576,11 11.5,11 C11.7454599,11 11.9496084,10.8231248 11.9919443,10.5898756 L12,10.5 L12,3.5 C12,3.22385763 11.7761424,3 11.5,3 Z M5,3 L3,3 C2.44771525,3 2,3.44771525 2,4 L2,4 L2,10 C2,10.5522847 2.44771525,11 3,11 L3,11 L5,11 C5.55228475,11 6,10.5522847 6,10 L6,10 L6,4 C6,3.44771525 5.55228475,3 5,3 L5,3 Z M5,4 L5,10 L3,10 L3,4 L5,4 Z" transform="translate(-.0008)" fill="currentColor" fill-rule="evenodd"/>
</svg>
