<svg xmlns="http://www.w3.org/2000/svg" viewBox="0 0 24 24" class="design-iconfont">
  <g stroke="currentColor" stroke-width="2" fill="none" fill-rule="evenodd">
    <path d="M7.01885008,22 L7.01885008,22 L5,22 C3.8954305,22 3,21.1045695 3,20 L3,4 C3,2.8954305 3.8954305,2 5,2 L19,2 C20.1045695,2 21,2.8954305 21,4 L21,7.89255778 L21,7.89255778" stroke-linecap="round"/>
    <path d="M16 11A3 3 0 1 0 16 17A3 3 0 1 0 16 11Z"/>
    <path d="M21,22 C21,19.2385763 18.7614237,17 16,17 C13.2385763,17 11,19.2385763 11,22" stroke-linecap="round"/>
    <path d="M14.7219458,7.06893416 C14.0080105,6.40563122 13.0513753,6 12,6 C9.790861,6 8,7.790861 8,10 C8,10.9000431 8.29726408,11.7306565 8.79896841,12.3990163" stroke-linecap="round"/>
  </g>
</svg>
