<svg xmlns="http://www.w3.org/2000/svg" viewBox="0 0 24 24" class="design-iconfont">
  <g fill="none" fill-rule="evenodd">
    <path stroke="currentColor" stroke-width="2" d="M12 3A9 9 0 1 0 12 21A9 9 0 1 0 12 3Z"/>
    <rect fill="currentColor" x="11" y="8" width="2" height="5" rx="1"/>
    <rect fill="currentColor" x="11" y="11" width="4" height="2" rx="1"/>
    <rect fill="currentColor" transform="rotate(30 5.278828 21.552937)" x="4.27882827" y="19.0529369" width="2" height="5" rx="1"/>
    <rect fill="currentColor" transform="scale(-1 1) rotate(30 0 -48.33275553)" x="17.735744" y="19.0899928" width="2" height="5" rx="1"/>
    <path d="M8.85566194,3.07801951 C8.46665998,1.87225304 7.33519279,1 6,1 C4.34314575,1 3,2.34314575 3,4 C3,5.15929234 3.65756769,6.16500152 4.6200677,6.66449218" stroke="currentColor" stroke-width="2"/>
    <path d="M19.3866965,6.66097091 C20.3455118,6.16028524 21,5.15657457 21,4 C21,2.34314575 19.6568542,1 18,1 C16.6339359,1 15.481127,1.91305453 15.1185528,3.16218428" stroke="currentColor" stroke-width="2"/>
  </g>
</svg>
