<?xml version="1.0" encoding="UTF-8"?>
<svg width="12px" height="12px" viewBox="0 0 12 12" version="1.1" xmlns="http://www.w3.org/2000/svg" xmlns:xlink="http://www.w3.org/1999/xlink">
    <title>图标/12pt/首页</title>
    <g id="页面-1" stroke="none" stroke-width="1" fill="none" fill-rule="evenodd">
        <g id="字典管理" transform="translate(-48.000000, -64.000000)" stroke="currentColor">
            <g id="编组-7" transform="translate(0.000000, 56.000000)">
                <g id="编组-4" transform="translate(40.000000, 0.000000)">
                    <g id="编组" transform="translate(8.000000, 8.000000)">
                        <path d="M6.04845796,0.416899989 L10.7770033,3.28042122 C11.2258257,3.55221991 11.5,4.03878447 11.5,4.56349016 L11.5,10 C11.5,10.4142136 11.3321068,10.7892136 11.0606602,11.0606602 C10.7892136,11.3321068 10.4142136,11.5 10,11.5 L2,11.5 C1.58578644,11.5 1.21078644,11.3321068 0.939339828,11.0606602 C0.667893219,10.7892136 0.5,10.4142136 0.5,10 L0.5,4.56886038 C0.5,4.03980582 0.778701609,3.5498761 1.23345787,3.27951436 L6.04845796,0.416899989 Z" id="矩形" stroke-linejoin="round"></path>
                        <line x1="6" y1="9" x2="6" y2="6" id="路径-11" stroke-linecap="round"></line>
                    </g>
                </g>
            </g>
        </g>
    </g>
</svg>
