<?xml version="1.0" encoding="utf-8"?>
<!-- Generator: Adobe Illustrator 24.0.1, SVG Export Plug-In . SVG Version: 6.00 Build 0)  -->
<svg version="1.1" id="图层_1" xmlns="http://www.w3.org/2000/svg" xmlns:xlink="http://www.w3.org/1999/xlink" x="0px" y="0px"
	 viewBox="0 0 14 14" style="enable-background:new 0 0 14 14;" xml:space="preserve">
<style type="text/css">
	.st0{display:none;}
	.st1{display:inline;}
</style>
<g class="st0">
	<g class="st1">
		<path d="M13.75,2.71v8.57c0,1.22-0.97,2.21-2.17,2.21H7.25c-0.28,0-0.5-0.22-0.5-0.5s0.22-0.5,0.5-0.5h4.33
			c0.64,0,1.17-0.54,1.17-1.21V2.71c0-0.67-0.52-1.21-1.17-1.21H7.25c-0.28,0-0.5-0.22-0.5-0.5s0.22-0.5,0.5-0.5h4.33
			C12.78,0.5,13.75,1.49,13.75,2.71z"/>
	</g>
	<g class="st1">
		<path d="M3.22,3.82L0.4,6.65c-0.05,0.05-0.08,0.1-0.11,0.16c-0.05,0.12-0.05,0.26,0,0.38C0.31,7.25,0.35,7.3,0.39,7.35
			c0,0,0,0,0,0l2.83,2.83c0.2,0.2,0.51,0.2,0.71,0s0.2-0.51,0-0.71L1.96,7.5h8.79c0.28,0,0.5-0.22,0.5-0.5s-0.22-0.5-0.5-0.5H1.96
			l1.97-1.97c0.2-0.2,0.2-0.51,0-0.71C3.74,3.62,3.42,3.62,3.22,3.82z"/>
	</g>
</g>
<g class="st0">
	<path class="st1" d="M13.5,3h-13C0.22,3,0,2.78,0,2.5v0C0,2.22,0.22,2,0.5,2h13C13.78,2,14,2.22,14,2.5v0C14,2.78,13.78,3,13.5,3z"
		/>
	<g class="st1">
		<path d="M11,3v9c0,0.55-0.45,1-1,1H4c-0.55,0-1-0.45-1-1V3H11 M12,2H2v10c0,1.1,0.9,2,2,2h6c1.1,0,2-0.9,2-2V2L12,2z"/>
	</g>
	<g class="st1">
		<polygon points="9,5 8,5 8,11 9,11 9,5 		"/>
	</g>
	<g class="st1">
		<polygon points="6,5 5,5 5,11 6,11 6,5 		"/>
	</g>
	<path class="st1" d="M5.28,2C5.63,1.41,6.26,1,7,1s1.37,0.41,1.72,1h1.09C9.4,0.84,8.3,0,7,0S4.6,0.84,4.18,2H5.28z"/>
</g>
<g class="st0">
	<g class="st1">
		<path d="M13.5,13h-13C0.22,13,0,13.22,0,13.5S0.22,14,0.5,14h13c0.28,0,0.5-0.22,0.5-0.5S13.78,13,13.5,13L13.5,13z"/>
	</g>
	<g class="st1">
		<path d="M5.88,1C6.5,1,7,1.5,7,2.12V13H2V2.12C2,1.5,2.5,1,3.12,1H5.88 M5.88,0H3.12C1.95,0,1,0.95,1,2.12V14h7V2.12
			C8,0.95,7.05,0,5.88,0L5.88,0z"/>
	</g>
	<g class="st1">
		<path d="M10.81,6C11.47,6,12,6.53,12,7.19V13H8V6H10.81 M10.81,5H7v9h6V7.19C13,5.98,12.02,5,10.81,5L10.81,5z"/>
	</g>
	<g class="st1">
		<path d="M5,4v1H4V4H5 M5,3H4C3.45,3,3,3.45,3,4v2h3V4C6,3.45,5.55,3,5,3L5,3z"/>
	</g>
	<g class="st1">
		<path d="M5,9v1H4V9H5 M5,8H4C3.45,8,3,8.45,3,9v2h3V9C6,8.45,5.55,8,5,8L5,8z"/>
	</g>
</g>
<g>
	<path d="M5.5,3.5c1.34,0,2.44,1.09,2.44,2.44S6.84,8.38,5.5,8.38S3.06,7.28,3.06,5.94S4.16,3.5,5.5,3.5 M5.5,2.5
		c-1.9,0-3.44,1.54-3.44,3.44S3.6,9.38,5.5,9.38s3.44-1.54,3.44-3.44S7.4,2.5,5.5,2.5L5.5,2.5z"/>
	<path d="M8.92,11.06c0.6,0,1.08,0.49,1.08,1.08v0.31c0,0.02-0.02,0.04-0.04,0.04H1.04C1.02,12.5,1,12.48,1,12.46v-0.31
		c0-0.6,0.49-1.08,1.08-1.08H8.92 M8.92,10.06H2.08C0.93,10.06,0,11,0,12.15v0.31c0,0.58,0.47,1.04,1.04,1.04h8.92
		c0.58,0,1.04-0.47,1.04-1.04v-0.31C11,11,10.07,10.06,8.92,10.06L8.92,10.06z"/>
	<path d="M8.5,0.5c-0.99,0-1.88,0.43-2.51,1.1c0.38,0.08,0.74,0.21,1.09,0.37C7.48,1.68,7.97,1.5,8.5,1.5
		c1.34,0,2.44,1.09,2.44,2.44c0,0.8-0.4,1.51-1,1.96C9.96,6.1,10,6.29,10,6.5c0,0.19-0.04,0.36-0.06,0.55
		c1.17-0.55,1.99-1.73,1.99-3.11C11.94,2.04,10.4,0.5,8.5,0.5z"/>
	<path d="M11.92,8.06h-1.58c0.31,0.3,0.58,0.64,0.81,1h0.77c0.6,0,1.08,0.49,1.08,1.08v0.31c0,0.02-0.02,0.04-0.04,0.04h-1.17
		c0.09,0.32,0.16,0.66,0.19,1h0.98c0.58,0,1.04-0.47,1.04-1.04v-0.31C14,9,13.07,8.06,11.92,8.06z"/>
</g>
</svg>
