<?xml version="1.0" encoding="utf-8"?>
<!-- Generator: Adobe Illustrator 24.0.1, SVG Export Plug-In . SVG Version: 6.00 Build 0)  -->
<svg version="1.1" id="图层_1" xmlns="http://www.w3.org/2000/svg" xmlns:xlink="http://www.w3.org/1999/xlink" x="0px" y="0px"
	 viewBox="0 0 14 14" style="enable-background:new 0 0 14 14;" xml:space="preserve">
<g>
	<g>
		<path d="M9.2,4h-5C4,4,3.8,4.2,3.8,4.5S4,5,4.2,5h5c0.3,0,0.5-0.2,0.5-0.5S9.5,4,9.2,4z"/>
	</g>
	<g>
		<path d="M8.2,7h-4C4,7,3.8,7.2,3.8,7.5S4,8,4.2,8h4c0.3,0,0.5-0.2,0.5-0.5S8.5,7,8.2,7z"/>
	</g>
	<g>
		<path d="M1.8,12V2c0-0.5,0.5-1,1-1h8c0.6,0,1,0.5,1,1v3h1V2c0-1.1-0.9-2-2-2h-8c-1.1,0-2,0.9-2,2v10c0,1.1,0.9,2,2,2h3v-1h-3
			C2.2,13,1.8,12.6,1.8,12z"/>
	</g>
	<g>
		<path d="M13.2,11.5h-5c-0.3,0-0.5-0.2-0.5-0.5s0.2-0.5,0.5-0.5h5c0.3,0,0.5,0.2,0.5,0.5S13.5,11.5,13.2,11.5z"/>
	</g>
	<g>
		<path d="M10.8,14c-0.3,0-0.5-0.2-0.5-0.5v-5c0-0.3,0.2-0.5,0.5-0.5s0.5,0.2,0.5,0.5v5C11.2,13.8,11,14,10.8,14z"/>
	</g>
</g>
</svg>
