<?xml version="1.0" encoding="utf-8"?>
<!-- Generator: Adobe Illustrator 24.0.1, SVG Export Plug-In . SVG Version: 6.00 Build 0)  -->
<svg version="1.1" id="图层_1" xmlns="http://www.w3.org/2000/svg" xmlns:xlink="http://www.w3.org/1999/xlink" x="0px" y="0px"
	 viewBox="0 0 1024 1024" style="enable-background:new 0 0 1024 1024;" xml:space="preserve">
<style type="text/css">
	.st0{display:none;fill:#666666;}
	.st1{display:none;}
	.st2{display:inline;}
</style>
<path class="st0" d="M511.46,62.79c-247.87,0-448.81,200.94-448.81,448.81s200.94,448.81,448.81,448.81S960.27,759.47,960.27,511.6
	S759.33,62.79,511.46,62.79z M679.63,770.38l-168.17-88.41L343.3,770.38l32.12-187.26L239.36,450.51l188.02-27.32l84.08-170.37
	l84.08,170.37l188.02,27.32L647.51,583.12L679.63,770.38z"/>
<path class="st1" d="M952.88,811.98L564.65,150.24c-11.79-20.1-32.22-30.15-52.65-30.15s-40.86,10.05-52.65,30.15L71.12,811.98
	c-23.87,40.69,5.47,91.93,52.65,91.93h776.47C947.42,903.91,976.76,852.67,952.88,811.98z M512,819.5
	c-31.08,0-56.27-25.2-56.27-56.27c0-31.08,25.19-56.27,56.27-56.27s56.27,25.19,56.27,56.27C568.27,794.3,543.08,819.5,512,819.5z
	 M568.27,566.27c0,31.08-25.19,56.27-56.27,56.27s-56.27-25.2-56.27-56.27V341.18c0-31.08,25.19-56.27,56.27-56.27
	s56.27,25.19,56.27,56.27V566.27z"/>
<g class="st1">
	<g class="st2">
		<path d="M873.42,250.92c10.8,5.73,14.95,18.58,9.41,29.13c-2.37,2.26-4.68,6.73-9.41,8.99L530.69,470.72
			c-14.04,6.73-30.58,6.73-44.62,0L150.39,289.04c-10.78-5.77-14.92-18.61-9.41-29.18c2.37-2.21,4.73-6.73,9.41-8.94L493.11,69.24
			c14.04-6.73,30.59-6.73,44.63,0L873.42,250.92z M443.82,540.28c14.53,7.65,23.54,22.26,23.49,38.12l-2.36,361.11
			c-0.12,5.71-2.7,11.12-7.15,14.94c-4.44,3.82-10.33,5.72-16.29,5.24c-4.73,0-7.04,0-9.41-2.21L119.85,791.46
			c-14.24-7.17-23.89-20.58-25.8-35.85V392.24c-0.03-5.36,2.19-10.51,6.15-14.31c3.97-3.79,9.36-5.91,14.97-5.88
			c4.04-0.34,8.11,0.42,11.72,2.21L443.82,540.28z M896.91,374.26c11.06-5.27,24.5-1.31,30.54,8.99c2.1,3.37,2.91,7.32,2.31,11.2
			v363.37c0.01,15.26-9.09,29.2-23.43,35.9L594.08,957.48c-11.06,5.27-24.5,1.31-30.54-8.99c-2.1-3.37-2.91-7.32-2.31-11.2
			l-2.36-358.9c0.01-15.28,9.13-29.21,23.49-35.91L896.91,374.26z M896.91,374.26"/>
	</g>
</g>
<g>
	<path d="M872.92,176.96v726.25H244.4c-48.67,0-89.18-38.91-89.18-82.14c0-47.54,40.51-82.15,89.18-82.15h567.65V64.52h-600.1
		c-64.9,0-117.6,51.85-117.6,112.44v670.08c0,60.48,52.7,112.44,117.6,112.44h717.7V176.96H872.92z M272.82,786.46h539.33v56.16
		H272.82V786.46z M272.82,786.46"/>
</g>
</svg>
