<?xml version="1.0" encoding="utf-8"?>
<!-- Generator: Adobe Illustrator 24.0.1, SVG Export Plug-In . SVG Version: 6.00 Build 0)  -->
<svg version="1.1" id="图层_1" xmlns="http://www.w3.org/2000/svg" xmlns:xlink="http://www.w3.org/1999/xlink" x="0px" y="0px"
	 viewBox="0 0 1024 1024" style="enable-background:new 0 0 1024 1024;" xml:space="preserve">
<style type="text/css">
	.st0{display:none;fill:#666666;}
	.st1{display:none;}
	.st2{display:inline;}
</style>
<path class="st0" d="M511.46,62.79c-247.87,0-448.81,200.94-448.81,448.81s200.94,448.81,448.81,448.81S960.27,759.47,960.27,511.6
	S759.33,62.79,511.46,62.79z M679.63,770.38l-168.17-88.41L343.3,770.38l32.12-187.26L239.36,450.51l188.02-27.32l84.08-170.37
	l84.08,170.37l188.02,27.32L647.51,583.12L679.63,770.38z"/>
<g class="st1">
	<path class="st2" d="M511.49,62.92l-336.65,98.19c0,0,0,185.7,0,343.66c0,245.47,336.65,343.66,336.65,343.66
		s336.65-98.19,336.65-343.66c0-118.47,0-343.66,0-343.66L511.49,62.92z M511.49,680.11L511.49,680.11
		c-30.99,0-56.11-25.12-56.11-56.11v0c0-30.99,25.12-56.11,56.11-56.11h0c30.99,0,56.11,25.12,56.11,56.11v0
		C567.6,654.99,542.48,680.11,511.49,680.11z M567.6,511.79H455.38V231.25H567.6V511.79z"/>
	<g class="st2">
		<path d="M511.49,960.65c-216.19,0-448.87-43.89-448.87-140.27c0-38.03,34.63-69.59,102.9-93.81c14.55-5.21,30.6,2.47,35.81,17.1
			c5.18,14.58-2.47,30.63-17.07,35.83c-54.41,19.29-65.53,37.15-65.53,40.88c0,25.15,133.61,84.16,392.76,84.16
			c259.12,0,392.76-59.01,392.76-84.16c0-3.89-11.78-22.52-69.37-42.3c-14.68-5.04-22.47-20.99-17.42-35.62
			c5.04-14.68,20.88-22.52,35.62-17.42c71.18,24.44,107.29,56.55,107.29,95.34C960.35,916.76,727.7,960.65,511.49,960.65z"/>
	</g>
</g>
<path class="st1" d="M790.88,65.8H233.12c-61.61,0-111.55,49.94-111.55,111.55v669.31c0,61.61,49.94,111.55,111.55,111.55h557.75
	c61.61,0,111.55-49.94,111.55-111.55V177.35C902.43,115.74,852.48,65.8,790.88,65.8z M512,762.99c-30.81,0-55.78-24.97-55.78-55.78
	c0-30.81,24.97-55.78,55.78-55.78s55.78,24.97,55.78,55.78C567.78,738.02,542.81,762.99,512,762.99z M567.78,595.66H456.22V261.01
	h111.55V595.66z"/>
<path class="st1" d="M932.09,901.47h-28.01V520.08c0-67.77-54.94-122.71-122.71-122.71H624.02V180.11
	c0-65.62-53.19-118.82-118.82-118.82H238.74c-65.62,0-118.82,53.2-118.82,118.82v721.36H91.91c-15.47,0-28.01,12.54-28.01,28.01
	c0,15.47,12.54,28.01,28.01,28.01h28.01h504.11h280.06h28.01c15.47,0,28.01-12.54,28.01-28.01
	C960.09,914.01,947.55,901.47,932.09,901.47z M287.95,341.35c0-30.94,25.08-56.01,56.01-56.01h56.01
	c30.94,0,56.01,25.08,56.01,56.01v112.02H287.95V341.35z M287.95,621.41c0-30.94,25.08-56.01,56.01-56.01h56.01
	c30.94,0,56.01,25.08,56.01,56.01v112.02H287.95V621.41z"/>
<path class="st1" d="M569.61,120.44c-166.14,55.94-337.29,0-337.29,0c0-30.89-25.04-55.94-55.94-55.94
	c-30.89,0-55.94,25.04-55.94,55.94v783.12c0,30.89,25.05,55.94,55.94,55.94c30.89,0,55.94-25.05,55.94-55.94V567.94
	c0,0,223.75,55.94,334.75,0s336.49,0,336.49,0V120.44C903.56,120.44,735.75,64.51,569.61,120.44z"/>
<path class="st1" d="M951.77,812.2L564.52,149.97c-11.76-20.12-32.14-30.18-52.52-30.18c-20.38,0-40.75,10.06-52.52,30.18
	L72.23,812.2c-23.81,40.72,5.45,92,52.52,92h774.5C946.31,904.2,975.58,852.92,951.77,812.2z M451.06,792.14l24.41-194.23H374.9
	l198.04-254l-24.41,194.24H649.1L451.06,792.14z"/>
<path d="M791.79,64.33H232.21c-61.81,0-111.92,50.1-111.92,111.92v671.5c0,61.81,50.11,111.92,111.92,111.92h559.58
	c61.81,0,111.92-50.11,111.92-111.92v-671.5C903.71,114.44,853.6,64.33,791.79,64.33z M735.83,567.96H288.17V456.04h447.67V567.96z
	 M735.83,344.12H288.17V232.21h447.67V344.12z"/>
</svg>
