<?xml version="1.0" encoding="utf-8"?>
<!-- Generator: Adobe Illustrator 24.0.1, SVG Export Plug-In . SVG Version: 6.00 Build 0)  -->
<svg version="1.1" id="图层_1" xmlns="http://www.w3.org/2000/svg" xmlns:xlink="http://www.w3.org/1999/xlink" x="0px" y="0px"
	 viewBox="0 0 1024 1024" style="enable-background:new 0 0 1024 1024;" xml:space="preserve">
<style type="text/css">
	.st0{display:none;fill:#666666;}
</style>
<path class="st0" d="M511.5,62.8c-247.9,0-448.8,200.9-448.8,448.8s200.9,448.8,448.8,448.8s448.8-200.9,448.8-448.8
	S759.3,62.8,511.5,62.8z M679.6,770.4L511.5,682l-168.2,88.4l32.1-187.3L239.4,450.5l188-27.3l84.1-170.4l84.1,170.4l188,27.3
	L647.5,583.1L679.6,770.4z"/>
<g>
	<g>
		<path d="M907.2,120.9H116.8c-28.6,0-51.7,23.2-51.7,51.7v231.8c0,28.6,23.2,51.7,51.7,51.7h790.4c28.6,0,51.7-23.2,51.7-51.7
			V172.7C958.9,144.1,935.8,120.9,907.2,120.9z M847.2,344.4H623.7V232.7h223.5V344.4z"/>
	</g>
	<g>
		<path d="M907.2,567.9H116.8c-28.6,0-51.7,23.2-51.7,51.7v231.8c0,28.6,23.2,51.7,51.7,51.7h790.4c28.6,0,51.7-23.2,51.7-51.7
			V619.6C958.9,591,935.8,567.9,907.2,567.9z M847.2,791.3H623.7V679.6h223.5V791.3z"/>
	</g>
</g>
</svg>
