<?xml version="1.0" encoding="utf-8"?>
<!-- Generator: Adobe Illustrator 23.1.1, SVG Export Plug-In . SVG Version: 6.00 Build 0)  -->
<svg version="1.1" id="图层_1" xmlns="http://www.w3.org/2000/svg" xmlns:xlink="http://www.w3.org/1999/xlink" x="0px" y="0px"
	 viewBox="0 0 14 14" style="enable-background:new 0 0 14 14;" xml:space="preserve">
<style type="text/css">
	.st0{display:none;}
	.st1{display:inline;}
</style>
<g class="st0">
	<path class="st1" d="M13,6c0-3.31-2.69-6-6-6S1,2.69,1,6c0,2.54,1.59,4.71,3.82,5.58L3.97,13H3v1h8v-1h-0.97l-0.85-1.42
		C11.41,10.71,13,8.54,13,6z M2,6c0-2.43,1.73-4.45,4.02-4.9C6.07,1.6,6.48,2,7,2s0.93-0.4,0.98-0.9C10.27,1.55,12,3.57,12,6
		c0,2.76-2.24,5-5,5S2,8.76,2,6z M8.87,13H5.13l0.67-1.12C6.19,11.96,6.59,12,7,12s0.81-0.04,1.19-0.12L8.87,13z"/>
	<path class="st1" d="M9.5,7c0-1.38-1.12-2.5-2.5-2.5S4.5,5.62,4.5,7S5.62,9.5,7,9.5S9.5,8.38,9.5,7z M5.5,7
		c0-0.83,0.67-1.5,1.5-1.5S8.5,6.17,8.5,7S7.83,8.5,7,8.5S5.5,7.83,5.5,7z"/>
</g>
<g class="st0">
	<rect x="6.5" y="-2.19" transform="matrix(0.7071 -0.7071 0.7071 0.7071 -2.8995 7)" class="st1" width="1" height="18.38"/>
</g>
<g class="st0">
	<path class="st1" d="M6.92,5.51C6.95,5.51,6.97,5.5,7,5.5c0.83,0,1.5,0.67,1.5,1.5c0,0.03-0.01,0.05-0.01,0.08l0.83,0.83
		C9.43,7.63,9.5,7.32,9.5,7c0-1.38-1.12-2.5-2.5-2.5c-0.32,0-0.63,0.07-0.91,0.18L6.92,5.51z"/>
	<path class="st1" d="M7.08,8.49C7.05,8.49,7.03,8.5,7,8.5C6.17,8.5,5.5,7.83,5.5,7c0-0.03,0.01-0.05,0.01-0.08L4.68,6.09
		C4.57,6.37,4.5,6.68,4.5,7c0,1.38,1.12,2.5,2.5,2.5c0.32,0,0.63-0.07,0.91-0.18L7.08,8.49z"/>
</g>
<g class="st0">
	<path class="st1" d="M9.18,11.58c0.23-0.09,0.45-0.2,0.67-0.32l-0.74-0.74C8.46,10.82,7.76,11,7,11c-2.76,0-5-2.24-5-5
		c0-0.75,0.18-1.46,0.48-2.1L1.73,3.14C1.26,3.99,1,4.97,1,6c0,2.54,1.59,4.71,3.82,5.58L3.97,13H3v1h8v-1h-0.97L9.18,11.58z
		 M5.13,13l0.67-1.12C6.19,11.96,6.59,12,7,12s0.81-0.04,1.2-0.12L8.87,13H5.13z"/>
	<path class="st1" d="M3.68,2.27C4.33,1.69,5.13,1.28,6.02,1.1C6.07,1.6,6.48,2,7,2s0.93-0.4,0.98-0.9C10.27,1.55,12,3.57,12,6
		c0,1.27-0.49,2.43-1.28,3.31l0.71,0.71C12.4,8.96,13,7.55,13,6c0-3.31-2.69-6-6-6C5.45,0,4.04,0.6,2.98,1.56L3.68,2.27z"/>
</g>
<g>
	<path class="st2" d="M7,14c-3.86,0-7-3.14-7-7c0-2.61,1.44-5,3.77-6.21C4.01,0.66,4.32,0.75,4.44,1c0.13,0.24,0.03,0.55-0.21,0.67
		C2.24,2.72,1,4.76,1,7c0,3.31,2.69,6,6,6s6-2.69,6-6c0-2.24-1.24-4.28-3.23-5.33C9.52,1.54,9.43,1.24,9.56,1
		c0.13-0.25,0.43-0.34,0.68-0.21C12.56,2,14,4.39,14,7C14,10.86,10.86,14,7,14z"/>
</g>
<g class="st0">
	<path class="st3" d="M6.22,5.53L7.97,7L6.22,8.47V5.53 M5.77,4C5.49,4,5.22,4.22,5.22,4.54v4.92C5.22,9.78,5.49,10,5.77,10
		c0.12,0,0.24-0.04,0.35-0.13l2.92-2.46c0.26-0.22,0.26-0.61,0-0.83L6.11,4.12C6.01,4.04,5.89,4,5.77,4L5.77,4z"/>
</g>
<g>
	<path class="st4" d="M7,8L7,8C6.72,8,6.5,7.78,6.5,7.5v-7C6.5,0.22,6.72,0,7,0h0c0.28,0,0.5,0.22,0.5,0.5v7C7.5,7.78,7.28,8,7,8z"
		/>
</g>
</svg>
