<?xml version="1.0" encoding="utf-8"?>
<!-- Generator: Adobe Illustrator 24.0.1, SVG Export Plug-In . SVG Version: 6.00 Build 0)  -->
<svg version="1.1" id="图层_1" xmlns="http://www.w3.org/2000/svg" xmlns:xlink="http://www.w3.org/1999/xlink" x="0px" y="0px"
	 viewBox="0 0 14 14" style="enable-background:new 0 0 14 14;" xml:space="preserve">
<style type="text/css">
	.st0{display:none;}
	.st1{display:inline;}
</style>
<g>
	<g>
		<path d="M13.75,2.71v8.57c0,1.22-0.97,2.21-2.17,2.21H7.25c-0.28,0-0.5-0.22-0.5-0.5s0.22-0.5,0.5-0.5h4.33
			c0.64,0,1.17-0.54,1.17-1.21V2.71c0-0.67-0.52-1.21-1.17-1.21H7.25c-0.28,0-0.5-0.22-0.5-0.5s0.22-0.5,0.5-0.5h4.33
			C12.78,0.5,13.75,1.49,13.75,2.71z"/>
	</g>
	<g>
		<path d="M3.22,3.82L0.4,6.65c-0.05,0.05-0.08,0.1-0.11,0.16c-0.05,0.12-0.05,0.26,0,0.38C0.31,7.25,0.35,7.3,0.39,7.35
			c0,0,0,0,0,0l2.83,2.83c0.2,0.2,0.51,0.2,0.71,0s0.2-0.51,0-0.71L1.96,7.5h8.79c0.28,0,0.5-0.22,0.5-0.5s-0.22-0.5-0.5-0.5H1.96
			l1.97-1.97c0.2-0.2,0.2-0.51,0-0.71C3.74,3.62,3.42,3.62,3.22,3.82z"/>
	</g>
</g>
<g class="st0">
	<path class="st1" d="M13.5,3h-13C0.22,3,0,2.78,0,2.5v0C0,2.22,0.22,2,0.5,2h13C13.78,2,14,2.22,14,2.5v0C14,2.78,13.78,3,13.5,3z"
		/>
	<g class="st1">
		<path d="M11,3v9c0,0.55-0.45,1-1,1H4c-0.55,0-1-0.45-1-1V3H11 M12,2H2v10c0,1.1,0.9,2,2,2h6c1.1,0,2-0.9,2-2V2L12,2z"/>
	</g>
	<g class="st1">
		<polygon points="9,5 8,5 8,11 9,11 9,5 		"/>
	</g>
	<g class="st1">
		<polygon points="6,5 5,5 5,11 6,11 6,5 		"/>
	</g>
	<path class="st1" d="M5.28,2C5.63,1.41,6.26,1,7,1s1.37,0.41,1.72,1h1.09C9.4,0.84,8.3,0,7,0S4.6,0.84,4.18,2H5.28z"/>
</g>
<g class="st0">
	<g class="st1">
		<path d="M13.5,13h-13C0.22,13,0,13.22,0,13.5S0.22,14,0.5,14h13c0.28,0,0.5-0.22,0.5-0.5S13.78,13,13.5,13L13.5,13z"/>
	</g>
	<g class="st1">
		<path d="M5.88,1C6.5,1,7,1.5,7,2.12V13H2V2.12C2,1.5,2.5,1,3.12,1H5.88 M5.88,0H3.12C1.95,0,1,0.95,1,2.12V14h7V2.12
			C8,0.95,7.05,0,5.88,0L5.88,0z"/>
	</g>
	<g class="st1">
		<path d="M10.81,6C11.47,6,12,6.53,12,7.19V13H8V6H10.81 M10.81,5H7v9h6V7.19C13,5.98,12.02,5,10.81,5L10.81,5z"/>
	</g>
	<g class="st1">
		<path d="M5,4v1H4V4H5 M5,3H4C3.45,3,3,3.45,3,4v2h3V4C6,3.45,5.55,3,5,3L5,3z"/>
	</g>
	<g class="st1">
		<path d="M5,9v1H4V9H5 M5,8H4C3.45,8,3,8.45,3,9v2h3V9C6,8.45,5.55,8,5,8L5,8z"/>
	</g>
</g>
</svg>
