<?xml version="1.0" encoding="utf-8"?>
<!-- Generator: Adobe Illustrator 23.0.2, SVG Export Plug-In . SVG Version: 6.00 Build 0)  -->
<svg version="1.1" id="图层_1" xmlns="http://www.w3.org/2000/svg" xmlns:xlink="http://www.w3.org/1999/xlink" x="0px" y="0px"
	 viewBox="0 0 1024 1024" style="enable-background:new 0 0 1024 1024;" xml:space="preserve">
<style type="text/css">
	.st0{display:none;fill:#666666;}
	.st1{display:none;}
	.st2{display:inline;}
	.st3{display:inline;fill:#F5B400;}
	.st4{display:inline;fill:#FFD46B;}
	.st5{display:inline;fill:#EBB214;}
	.st6{fill:#FFD46B;}
	.st7{fill:#EBB214;}
</style>
<path class="st0" d="M960.35-27.21c-247.87,0-448.81,200.94-448.81,448.81s200.94,448.81,448.81,448.81s448.81-200.94,448.81-448.81
	S1208.22-27.21,960.35-27.21z M1128.52,680.38l-168.17-88.41l-168.17,88.41l32.12-187.26L688.25,360.51l188.02-27.32l84.08-170.37
	l84.08,170.37l188.02,27.32l-136.05,132.62L1128.52,680.38z"/>
<g class="st1">
	<path class="st2" d="M511.77,623.4c154.49,0,279.73-125.24,279.73-279.73S666.26,63.95,511.77,63.95S232.05,189.18,232.05,343.67
		S357.28,623.4,511.77,623.4z M353.54,185.44c42.27-42.27,98.46-65.54,158.24-65.54c59.77,0,115.97,23.28,158.24,65.54
		c42.27,42.27,65.54,98.46,65.54,158.24c0,59.77-23.28,115.97-65.54,158.24c-42.27,42.27-98.46,65.54-158.24,65.54
		c-59.77,0-115.97-23.28-158.24-65.54c-42.27-42.27-65.54-98.46-65.54-158.24C287.99,283.9,311.27,227.7,353.54,185.44z"/>
	<path class="st2" d="M772.85,679.34H250.7c-102.99,0-186.48,83.49-186.48,186.48v0c0,51.5,41.75,93.24,93.24,93.24h708.64
		c51.5,0,93.24-41.75,93.24-93.24v0C959.33,762.83,875.84,679.34,772.85,679.34z M866.09,903.12H157.45
		c-20.57,0-37.3-16.73-37.3-37.3c0-34.87,13.58-67.65,38.23-92.3c24.66-24.66,57.44-38.23,92.3-38.23h522.15
		c34.87,0,67.65,13.58,92.3,38.23c24.66,24.66,38.23,57.44,38.23,92.3C903.39,886.39,886.66,903.12,866.09,903.12z"/>
</g>
<g class="st1">
	<path class="st2" d="M680.16,512c61.81,0,111.92-50.11,111.92-111.92s-50.1-111.92-111.92-111.92
		c-61.81,0-111.92,50.11-111.92,111.92S618.35,512,680.16,512z M680.16,344.13c30.85,0,55.96,25.1,55.96,55.96
		s-25.1,55.96-55.96,55.96c-30.85,0-55.96-25.1-55.96-55.96S649.3,344.13,680.16,344.13z"/>
	<path class="st2" d="M785.86,567.96H574.46c-34.34,0-62.18,27.84-62.18,62.17v74.61c0,17.17,13.92,31.09,31.09,31.09h273.57
		c17.17,0,31.09-13.92,31.09-31.09v-74.61C848.03,595.79,820.19,567.96,785.86,567.96z M792.07,679.87H568.24v-49.74
		c0-3.43,2.79-6.22,6.22-6.22h211.39c3.43,0,6.22,2.79,6.22,6.22V679.87z"/>
	<path class="st2" d="M848.03,120.3H176.54c-61.81,0-111.92,50.11-111.92,111.92v559.58c0,61.81,50.11,111.92,111.92,111.92h671.49
		c61.81,0,111.92-50.11,111.92-111.92V232.21C959.94,170.4,909.84,120.3,848.03,120.3z M903.99,791.79
		c0,30.85-25.1,55.96-55.96,55.96H176.54c-30.85,0-55.96-25.1-55.96-55.96V232.21c0-30.85,25.1-55.96,55.96-55.96h671.49
		c30.85,0,55.96,25.1,55.96,55.96V791.79z"/>
	<path class="st2" d="M372.39,344.13H260.47c-15.45,0-27.98,12.52-27.98,27.98c0,15.45,12.53,27.98,27.98,27.98h111.92
		c15.45,0,27.98-12.53,27.98-27.98C400.37,356.65,387.84,344.13,372.39,344.13z"/>
	<path class="st2" d="M372.39,623.92H260.47c-15.45,0-27.98,12.52-27.98,27.98c0,15.45,12.53,27.98,27.98,27.98h111.92
		c15.45,0,27.98-12.53,27.98-27.98C400.37,636.44,387.84,623.92,372.39,623.92z"/>
</g>
<path class="st1" d="M903.93,679.76V511.79H735.96v55.99H344.03V455.8h111.98c30.92,0,55.99-25.07,55.99-55.99V119.86
	c0-30.92-25.07-55.99-55.99-55.99H176.06c-30.92,0-55.99,25.07-55.99,55.99v279.95c0,30.92,25.07,55.99,55.99,55.99h111.98v503.91
	h55.99v-55.99h391.93v55.99h167.97V791.74H735.96v55.99H344.03V623.77h391.93v55.99H903.93z M791.95,567.78h55.99v55.99h-55.99
	V567.78z M176.06,399.81V119.86h279.95v279.95H176.06z M791.95,847.73h55.99v55.99h-55.99V847.73z"/>
<g class="st1">
	<path class="st2" d="M512,63.87L120.04,175.86c0,0,0,211.8,0,391.96C120.04,847.78,512,959.77,512,959.77
		s391.96-111.99,391.96-391.96c0-135.12,0-391.96,0-391.96L512,63.87z M847.96,567.81c0,205.56-268.37,310.09-336.02,333.16
		c-67.88-22.99-335.9-126.87-335.9-333.16V218.09L512,122.1l335.96,95.99V567.81z"/>
	<path class="st2" d="M373.42,475.62c-5.47-5.46-12.63-8.2-19.8-8.2c-7.16,0-14.33,2.73-19.79,8.2c-10.93,10.94-10.93,28.66,0,39.6
		l118.78,118.78c5.47,5.47,12.63,8.2,19.8,8.2c7.16,0,14.33-2.73,19.8-8.2l197.97-197.97c10.93-10.93,10.93-28.66,0-39.59
		c-5.47-5.47-12.63-8.2-19.8-8.2c-7.16,0-14.33,2.73-19.79,8.2L472.41,574.6L373.42,475.62z"/>
</g>
<g class="st1">
	<path class="st2" d="M791.96,63.87H232.04c-61.85,0-111.98,50.14-111.98,111.98v671.89c0,61.85,50.14,111.98,111.98,111.98h559.91
		c61.85,0,111.98-50.14,111.98-111.98V175.85C903.94,114.01,853.8,63.87,791.96,63.87z M847.95,847.75
		c0,30.87-25.12,55.99-55.99,55.99H232.04c-30.87,0-55.99-25.12-55.99-55.99V175.85c0-30.87,25.12-55.99,55.99-55.99h559.91
		c30.87,0,55.99,25.12,55.99,55.99V847.75z"/>
	<rect x="288.04" y="287.83" class="st2" width="447.93" height="55.99"/>
	<rect x="288.04" y="455.81" class="st2" width="447.93" height="55.99"/>
	<rect x="288.04" y="623.78" class="st2" width="447.93" height="55.99"/>
</g>
<g class="st1">
	<path class="st3" d="M623.96,63.95H232.09c-61.83,0-111.96,50.12-111.96,111.96v671.78c0,61.83,50.13,111.96,111.96,111.96h559.81
		c61.83,0,111.96-50.13,111.96-111.96V343.85L623.96,63.95z M735.93,791.7H288.07v-55.98h447.85V791.7z M735.93,567.78H288.07V511.8
		h447.85V567.78z"/>
	<path class="st4" d="M903.87,343.85H735.93c-61.84,0-111.96-50.13-111.96-111.96V63.95L903.87,343.85z"/>
</g>
<g class="st1">
	<path class="st5" d="M754.77,224.32H582.16c0-63.56-51.52-115.07-115.07-115.07H179.41c-63.55,0-115.07,51.52-115.07,115.07v690.43
		l805.5-172.61V339.39C869.84,275.84,818.32,224.32,754.77,224.32z"/>
	<path class="st4" d="M775.51,914.75H64.34l115.07-575.36h665.14c72.62,0,127.08,66.43,112.84,137.64l-69.04,345.22
		C877.59,876.03,830.36,914.75,775.51,914.75z"/>
</g>
<g>
	<path class="st6" d="M848.13,904.15H175.87c-61.88,0-112.04-50.16-112.04-112.04V231.89h784.3c61.88,0,112.04,50.16,112.04,112.04
		v448.17C960.17,853.99,910.01,904.15,848.13,904.15z"/>
	<path class="st7" d="M568.02,231.89H63.83v0c0-61.88,50.16-112.04,112.04-112.04h280.11C517.86,119.85,568.02,170.01,568.02,231.89
		L568.02,231.89z"/>
</g>
</svg>
