<?xml version="1.0" encoding="utf-8"?>
<!-- Generator: Adobe Illustrator 23.0.2, SVG Export Plug-In . SVG Version: 6.00 Build 0)  -->
<svg version="1.1" id="图层_1" xmlns="http://www.w3.org/2000/svg" xmlns:xlink="http://www.w3.org/1999/xlink" x="0px" y="0px"
	 viewBox="0 0 1024 1024" style="enable-background:new 0 0 1024 1024;" xml:space="preserve">
<style type="text/css">
	.st0{display:none;fill:#666666;}
	.st1{display:none;}
	.st2{display:inline;}
</style>
<path class="st0" d="M511.46,62.79c-247.87,0-448.81,200.94-448.81,448.81s200.94,448.81,448.81,448.81S960.27,759.47,960.27,511.6
	S759.33,62.79,511.46,62.79z M679.63,770.38l-168.17-88.41L343.3,770.38l32.12-187.26L239.36,450.51l188.02-27.32l84.08-170.37
	l84.08,170.37l188.02,27.32L647.51,583.12L679.63,770.38z"/>
<g class="st1">
	<path class="st2" d="M857.86,808.45c0,27.24-22.17,49.41-49.41,49.41h-592.9c-27.24,0-49.41-22.17-49.41-49.41v-592.9
		c0-27.24,22.17-49.41,49.41-49.41H512V96.97H215.55c-65.49,0-118.58,53.09-118.58,118.58v592.9c0,65.49,53.09,118.58,118.58,118.58
		h592.9c65.49,0,118.58-53.09,118.58-118.58V512h-69.17V808.45z"/>
	<path class="st2" d="M329.96,694.04L329.96,694.04c-13.51-13.51-13.51-35.41,0-48.91L867.99,107.1c13.51-13.51,35.41-13.51,48.91,0
		l0,0c13.51,13.51,13.51,35.41,0,48.91L378.87,694.04C365.36,707.55,343.46,707.55,329.96,694.04z"/>
</g>
<path d="M959.84,512L512,64.16L64.16,512h63.98v319.89c0,70.67,57.29,127.96,127.96,127.96h127.96h63.98v-63.98v-63.98V703.93
	c0-35.28,28.7-63.98,63.98-63.98s63.98,28.7,63.98,63.98v127.96v63.98v63.98h63.98h127.96c70.67,0,127.96-57.29,127.96-127.96V512
	H959.84z M831.89,575.98v255.91c0,35.28-28.7,63.98-63.98,63.98H639.96V703.93c0-70.67-57.29-127.96-127.96-127.96
	s-127.96,57.28-127.96,127.96v191.93H256.09c-35.28,0-63.98-28.7-63.98-63.98V575.98V512v-37.48l255.91-255.92L512,154.63
	l63.98,63.98l255.91,255.92V512V575.98z"/>
</svg>
