<svg 
 xmlns="http://www.w3.org/2000/svg"
 xmlns:xlink="http://www.w3.org/1999/xlink"
 width="18px" height="16px">
<path fill-rule="evenodd"  fill="rgb(51, 153, 255)"
 d="M15.992,-0.000 L2.008,-0.000 C0.899,-0.000 -0.000,0.899 -0.000,2.008 L-0.000,13.992 C-0.000,15.101 0.899,16.000 2.008,16.000 L15.992,16.000 C17.101,16.000 18.000,15.101 18.000,13.992 L18.000,2.008 C18.000,0.899 17.101,-0.000 15.992,-0.000 ZM6.000,4.204 C7.262,4.204 8.286,5.280 8.286,6.607 C8.286,7.934 7.262,9.009 6.000,9.009 C4.738,9.009 3.714,7.934 3.714,6.607 C3.714,5.280 4.738,4.204 6.000,4.204 ZM8.997,13.000 L3.003,13.000 C2.449,13.000 2.000,12.551 2.000,11.997 C2.000,10.973 2.976,10.000 4.000,10.000 L8.000,10.000 C9.024,10.000 10.000,10.973 10.000,11.997 C10.000,12.551 9.551,13.000 8.997,13.000 ZM16.000,12.000 L12.000,12.000 L12.000,11.000 L16.000,11.000 L16.000,12.000 ZM16.000,9.000 L12.000,9.000 L12.000,8.000 L16.000,8.000 L16.000,9.000 ZM16.000,6.000 L12.000,6.000 L12.000,5.000 L16.000,5.000 L16.000,6.000 Z"/>
</svg>