<?xml version="1.0" encoding="utf-8"?>
<!-- Generator: Adobe Illustrator 24.0.1, SVG Export Plug-In . SVG Version: 6.00 Build 0)  -->
<svg version="1.1" id="图层_1" xmlns="http://www.w3.org/2000/svg" xmlns:xlink="http://www.w3.org/1999/xlink" x="0px" y="0px"
	 viewBox="0 0 14 14" style="enable-background:new 0 0 14 14;" xml:space="preserve">
<style type="text/css">
	.st0{display:none;}
</style>
<rect x="6.5" y="0.5" class="st0" width="1" height="13"/>
<rect x="6.5" y="0.5" transform="matrix(-1.836970e-16 1 -1 -1.836970e-16 14 4.556355e-13)" class="st0" width="1" height="13"/>
<g>
	<path d="M3.46,14.03c-0.9,0-1.79-0.34-2.47-1.02c-1.36-1.37-1.36-3.58,0-4.95l2.83-2.83l0.71,0.71L1.7,8.77
		c-0.98,0.97-0.98,2.56,0,3.54c0.97,0.97,2.56,0.97,3.54,0l2.83-2.83l0.71,0.71l-2.83,2.83C5.26,13.69,4.36,14.03,3.46,14.03z"/>
</g>
<g>
	<path d="M10.19,8.76L9.48,8.05l2.82-2.82c0.97-0.98,0.97-2.56,0-3.54c-0.98-0.98-2.56-0.97-3.54,0L5.98,4.48L5.27,3.78l2.79-2.79
		c1.37-1.37,3.59-1.36,4.95,0s1.36,3.58,0,4.95L10.19,8.76z"/>
</g>
<g>
	<rect x="6.5" y="4" transform="matrix(0.7071 0.7071 -0.7071 0.7071 7 -2.8995)" width="1" height="6"/>
</g>
</svg>
