<?xml version="1.0" encoding="utf-8"?>
<!-- Generator: Adobe Illustrator 23.0.2, SVG Export Plug-In . SVG Version: 6.00 Build 0)  -->
<svg version="1.1" id="图层_1" xmlns="http://www.w3.org/2000/svg" xmlns:xlink="http://www.w3.org/1999/xlink" x="0px" y="0px"
	 viewBox="0 0 1024 1024" style="enable-background:new 0 0 1024 1024;" xml:space="preserve">
<style type="text/css">
	.st0{display:none;fill:#666666;}
</style>
<path class="st0" d="M511.46,62.79c-247.87,0-448.81,200.94-448.81,448.81s200.94,448.81,448.81,448.81S960.27,759.47,960.27,511.6
	S759.33,62.79,511.46,62.79z M679.63,770.38l-168.17-88.41L343.3,770.38l32.12-187.26L239.36,450.51l188.02-27.32l84.08-170.37
	l84.08,170.37l188.02,27.32L647.51,583.12L679.63,770.38z"/>
<g>
	<path d="M104.66,267.6h814.68c22.5,0,40.73-18.24,40.73-40.73v0c0-22.5-18.24-40.73-40.73-40.73H104.66
		c-22.5,0-40.73,18.24-40.73,40.73v0C63.93,249.36,82.17,267.6,104.66,267.6z"/>
	<path d="M104.66,837.87h814.68c22.5,0,40.73-18.24,40.73-40.73v0c0-22.5-18.24-40.73-40.73-40.73H104.66
		c-22.5,0-40.73,18.24-40.73,40.73v0C63.93,819.63,82.17,837.87,104.66,837.87z"/>
	<path d="M104.66,552.73h488.81c22.5,0,40.73-18.24,40.73-40.73v0c0-22.5-18.24-40.73-40.73-40.73H104.66
		c-22.5,0-40.73,18.24-40.73,40.73v0C63.93,534.5,82.17,552.73,104.66,552.73z"/>
	<path d="M809.82,427.86v168.28c0,15.68,17.9,24.63,30.45,15.22l112.19-84.14c10.15-7.61,10.15-22.84,0-30.45l-112.19-84.14
		C827.73,403.23,809.82,412.18,809.82,427.86z"/>
</g>
</svg>
