<?xml version="1.0" encoding="utf-8"?>
<!-- Generator: Adobe Illustrator 23.1.1, SVG Export Plug-In . SVG Version: 6.00 Build 0)  -->
<svg version="1.1" id="图层_1" xmlns="http://www.w3.org/2000/svg" xmlns:xlink="http://www.w3.org/1999/xlink" x="0px" y="0px"
	 viewBox="0 0 1024 1024" style="enable-background:new 0 0 1024 1024;" xml:space="preserve">
<style type="text/css">
	.st0{display:none;fill:#666666;}
</style>
<path class="st0" d="M511.5,62.8c-247.9,0-448.8,200.9-448.8,448.8s200.9,448.8,448.8,448.8s448.8-200.9,448.8-448.8
	S759.3,62.8,511.5,62.8z M679.6,770.4L511.5,682l-168.2,88.4l32.1-187.3L239.4,450.5l188-27.3l84.1-170.4l84.1,170.4l188,27.3
	L647.5,583.1L679.6,770.4z"/>
<path d="M903.8,176.1v727.7h-56V180.4c0-64.2-52-116.2-116.2-116.2H180.4c-64.2,0-116.2,52-116.2,116.2v663.3
	c0,64.2,52,116.2,116.2,116.2h555.5h112h56h56V176.1H903.8z M176.1,176.1h167.9v167.9H176.1V176.1z M176.1,456h559.8v56H176.1V456z
	 M176.1,624h559.8v56H176.1V624z M176.1,847.9v-56h559.8v56H176.1z"/>
</svg>
