<?xml version="1.0" encoding="utf-8"?>
<!-- Generator: Adobe Illustrator 24.0.1, SVG Export Plug-In . SVG Version: 6.00 Build 0)  -->
<svg version="1.1" id="图层_1" xmlns="http://www.w3.org/2000/svg" xmlns:xlink="http://www.w3.org/1999/xlink" x="0px" y="0px"
	 viewBox="0 0 1024 1024" style="enable-background:new 0 0 1024 1024;" xml:space="preserve">
<style type="text/css">
	.st0{display:none;fill:#666666;}
</style>
<path class="st0" d="M511.46,62.79c-247.87,0-448.81,200.94-448.81,448.81s200.94,448.81,448.81,448.81S960.27,759.47,960.27,511.6
	S759.33,62.79,511.46,62.79z M679.63,770.38l-168.17-88.41L343.3,770.38l32.12-187.26L239.36,450.51l188.02-27.32l84.08-170.37
	l84.08,170.37l188.02,27.32L647.51,583.12L679.63,770.38z"/>
<g>
	<path d="M848.02,680.01h-56V378.45c0-125.04-96.2-229.31-224.01-253.27v-5.21c0-30.93-25.07-56-56-56c-30.93,0-56,25.07-56,56v5.21
		c-127.81,23.95-224.01,128.22-224.01,253.27v301.56h-56c-30.93,0-56,25.07-56,56c0,30.93,25.08,56,56,56h56h560.03h56
		c30.93,0,56-25.08,56-56C904.02,705.08,878.95,680.01,848.02,680.01z"/>
	<path d="M512,960.03c61.86,0,112.01-50.15,112.01-112.01H399.99C399.99,909.88,450.14,960.03,512,960.03z"/>
</g>
</svg>
