<?xml version="1.0" encoding="utf-8"?>
<!-- Generator: Adobe Illustrator 23.1.1, SVG Export Plug-In . SVG Version: 6.00 Build 0)  -->
<svg version="1.1" id="图层_1" xmlns="http://www.w3.org/2000/svg" xmlns:xlink="http://www.w3.org/1999/xlink" x="0px" y="0px"
	 viewBox="0 0 1024 1024" style="enable-background:new 0 0 1024 1024;" xml:space="preserve">
<style type="text/css">
	.st0{display:none;fill:#666666;}
</style>
<path class="st0" d="M511.46,62.79c-247.87,0-448.81,200.94-448.81,448.81s200.94,448.81,448.81,448.81S960.27,759.47,960.27,511.6
	S759.33,62.79,511.46,62.79z M679.63,770.38l-168.17-88.41L343.3,770.38l32.12-187.26L239.36,450.51l188.02-27.32l84.08-170.37
	l84.08,170.37l188.02,27.32L647.51,583.12L679.63,770.38z"/>
<path d="M804.11,141.84h-38.95v-38.95c0-21.51-17.44-38.95-38.95-38.95s-38.95,17.44-38.95,38.95v38.95H356.21v-38.95
	c0-21.51-17.44-38.95-38.95-38.95s-38.95,17.44-38.95,38.95v38.95h-58.42c-43.02,0-77.89,34.87-77.89,77.89v662.11
	c0,43.02,34.87,77.89,77.89,77.89h584.21c43.02,0,77.89-34.88,77.89-77.89V219.74C882,176.72,847.13,141.84,804.11,141.84z
	 M682.94,692.81L517.7,858.05c-15.21,15.21-39.87,15.21-55.08,0L380,775.43c-15.21-15.21-15.21-39.87,0-55.08
	c15.21-15.21,39.87-15.21,55.08,0l55.08,55.08l137.7-137.7c15.21-15.21,39.87-15.21,55.08,0
	C698.15,652.94,698.15,677.6,682.94,692.81z M745.68,511.84H278.32c-21.51,0-38.95-17.44-38.95-38.95
	c0-21.51,17.44-38.95,38.95-38.95h467.37c21.51,0,38.95,17.44,38.95,38.95C784.63,494.4,767.19,511.84,745.68,511.84z
	 M745.68,356.05H278.32c-21.51,0-38.95-17.44-38.95-38.95c0-21.51,17.44-38.95,38.95-38.95h467.37c21.51,0,38.95,17.44,38.95,38.95
	C784.63,338.61,767.19,356.05,745.68,356.05z"/>
</svg>
