<?xml version="1.0" encoding="utf-8"?>
<!-- Generator: Adobe Illustrator 23.1.1, SVG Export Plug-In . SVG Version: 6.00 Build 0)  -->
<svg version="1.1" id="图层_1" xmlns="http://www.w3.org/2000/svg" xmlns:xlink="http://www.w3.org/1999/xlink" x="0px" y="0px"
	 viewBox="0 0 14 14" style="enable-background:new 0 0 14 14;" xml:space="preserve">
<g>
	<path d="M13,6c0-3.31-2.69-6-6-6S1,2.69,1,6c0,2.54,1.59,4.71,3.82,5.58L3.97,13H3v1h8v-1h-0.97l-0.85-1.42
		C11.41,10.71,13,8.54,13,6z M2,6c0-2.43,1.73-4.45,4.02-4.9C6.07,1.6,6.48,2,7,2s0.93-0.4,0.98-0.9C10.27,1.55,12,3.57,12,6
		c0,2.76-2.24,5-5,5S2,8.76,2,6z M8.87,13H5.13l0.67-1.12C6.19,11.96,6.59,12,7,12s0.81-0.04,1.19-0.12L8.87,13z"/>
	<path d="M9.5,7c0-1.38-1.12-2.5-2.5-2.5S4.5,5.62,4.5,7S5.62,9.5,7,9.5S9.5,8.38,9.5,7z M5.5,7c0-0.83,0.67-1.5,1.5-1.5
		S8.5,6.17,8.5,7S7.83,8.5,7,8.5S5.5,7.83,5.5,7z"/>
</g>
</svg>
