<?xml version="1.0" standalone="no"?><!DOCTYPE svg PUBLIC "-//W3C//DTD SVG 1.1//EN" "http://www.w3.org/Graphics/SVG/1.1/DTD/svg11.dtd"><svg t="1606785864845" class="icon" viewBox="0 0 1024 1024" version="1.1" xmlns="http://www.w3.org/2000/svg" p-id="4956" xmlns:xlink="http://www.w3.org/1999/xlink" width="200" height="200"><defs><style type="text/css"></style></defs><path d="M127.577119 446.162526l258.153548 0 0-61.718667L127.577119 384.443859 127.577119 446.162526zM126.553813 637.458363l193.251376 0 0-61.718667-193.251376 0L126.553813 637.458363zM126.553813 829.773414l128.347157 0L254.900969 768.05577 126.553813 768.05577 126.553813 829.773414zM513.05554 192.638415 126.553813 192.638415l0 61.718667 386.501728 0L513.05554 192.638415zM701.485097 598.252433 701.485097 191.103456 576.205812 191.103456l0 407.148977L392.382157 598.252433l183.823656 229.221612 0 1.276063 125.279285 0 0-1.276063 183.823656-229.221612L701.485097 598.252433z" p-id="4957"></path></svg>