<?xml version="1.0" standalone="no"?><!DOCTYPE svg PUBLIC "-//W3C//DTD SVG 1.1//EN" "http://www.w3.org/Graphics/SVG/1.1/DTD/svg11.dtd"><svg t="1606785879546" class="icon" viewBox="0 0 1024 1024" version="1.1" xmlns="http://www.w3.org/2000/svg" p-id="5149" xmlns:xlink="http://www.w3.org/1999/xlink" width="200" height="200"><defs><style type="text/css"></style></defs><path d="M128.770294 638.139885l258.153548 0 0-61.71969L128.770294 576.420195 128.770294 638.139885zM127.746988 446.843024l193.252399 0 0-61.718667L127.746988 385.124358 127.746988 446.843024zM127.746988 254.527974l128.34818 0 0-61.718667L127.746988 192.809307 127.746988 254.527974zM514.248715 829.943282l0-61.718667L127.746988 768.224616l0 61.718667L514.248715 829.943282 514.248715 829.943282zM702.678272 424.330288l183.824679 0L702.678272 195.107653l0-1.27504L577.398987 193.832613l0 1.27504L393.575332 424.330288l183.823656 0 0 407.147954 125.279285 0L702.678272 424.330288 702.678272 424.330288z" p-id="5150"></path></svg>