<?xml version="1.0" encoding="utf-8"?>
<!-- Generator: Adobe Illustrator 24.0.1, SVG Export Plug-In . SVG Version: 6.00 Build 0)  -->
<svg version="1.1" id="图层_1" xmlns="http://www.w3.org/2000/svg" xmlns:xlink="http://www.w3.org/1999/xlink" x="0px" y="0px"
	 viewBox="0 0 1024 1024" style="enable-background:new 0 0 1024 1024;" xml:space="preserve">
<style type="text/css">
	.st0{display:none;fill:#666666;}
	.st1{fill-rule:evenodd;clip-rule:evenodd;}
</style>
<path class="st0" d="M511.5,62.8c-247.9,0-448.8,200.9-448.8,448.8s200.9,448.8,448.8,448.8s448.8-200.9,448.8-448.8
	S759.3,62.8,511.5,62.8z M679.6,770.4L511.5,682l-168.2,88.4l32.1-187.3L239.4,450.5l188-27.3l84.1-170.4l84.1,170.4l188,27.3
	L647.5,583.1L679.6,770.4z"/>
<path class="st1" d="M524.5,959.6C-297.6,144.2,683.8-196.5,815.3,285.3c38,139.2-50.7,317.1-133,423.8l0.1,0.7L536.8,564.3
	c42.9-54,93-129.7,90-190.6c-11.3-227.9-440.5-103.3-114.4,220.2l0.2-0.4L679,759.9C627.1,836.6,570.4,906.3,524.5,959.6z"/>
</svg>
