<?xml version="1.0" encoding="utf-8"?>
<!-- Generator: Adobe Illustrator 24.0.1, SVG Export Plug-In . SVG Version: 6.00 Build 0)  -->
<svg version="1.1" id="图层_1" xmlns="http://www.w3.org/2000/svg" xmlns:xlink="http://www.w3.org/1999/xlink" x="0px" y="0px"
	 viewBox="0 0 1024 1024" style="enable-background:new 0 0 1024 1024;" xml:space="preserve">
<style type="text/css">
	.st0{display:none;fill:#666666;}
</style>
<path class="st0" d="M511.5,62.8c-247.9,0-448.8,200.9-448.8,448.8s200.9,448.8,448.8,448.8s448.8-200.9,448.8-448.8
	S759.3,62.8,511.5,62.8z M679.6,770.4L511.5,682l-168.2,88.4l32.1-187.3L239.4,450.5l188-27.3l84.1-170.4l84.1,170.4l188,27.3
	L647.5,583.1L679.6,770.4z"/>
<g>
	<path d="M846.6,177.4h-55.8v-55.8c0-30.8-25-55.8-55.8-55.8s-55.8,24.9-55.8,55.8v55.8H344.7v-55.8c0-30.8-25-55.8-55.8-55.8
		s-55.8,24.9-55.8,55.8v55.8h-55.8c-61.6,0-111.5,49.9-111.5,111.5v55.8h892.3v-55.8C958.2,227.3,908.2,177.4,846.6,177.4z"/>
	<path d="M65.8,846.6c0,61.6,49.9,111.5,111.5,111.5h669.3c61.6,0,111.5-49.9,111.5-111.5V400.5H65.8V846.6z M275.4,595.7
		c21.8-21.8,57.1-21.8,78.9,0L472.6,714l197.2-197.2c21.8-21.8,57.1-21.8,78.9,0c21.8,21.8,21.8,57.1,0,78.9L512,832.3
		c-21.8,21.8-57.1,21.8-78.9,0L275.4,674.5C253.6,652.7,253.6,617.5,275.4,595.7z"/>
</g>
</svg>
