<?xml version="1.0" encoding="utf-8"?>
<!-- Generator: Adobe Illustrator 24.0.1, SVG Export Plug-In . SVG Version: 6.00 Build 0)  -->
<svg version="1.1" id="图层_1" xmlns="http://www.w3.org/2000/svg" xmlns:xlink="http://www.w3.org/1999/xlink" x="0px" y="0px"
	 viewBox="0 0 1024 1024" style="enable-background:new 0 0 1024 1024;" xml:space="preserve">
<style type="text/css">
	.st0{display:none;fill:#666666;}
</style>
<path class="st0" d="M511.46,62.79c-247.87,0-448.81,200.94-448.81,448.81s200.94,448.81,448.81,448.81S960.27,759.47,960.27,511.6
	S759.33,62.79,511.46,62.79z M679.63,770.38l-168.17-88.41L343.3,770.38l32.12-187.26L239.36,450.51l188.02-27.32l84.08-170.37
	l84.08,170.37l188.02,27.32L647.51,583.12L679.63,770.38z"/>
<g>
	<path d="M511.49,62.92l-336.65,98.19c0,0,0,185.7,0,343.66c0,245.47,336.65,343.66,336.65,343.66s336.65-98.19,336.65-343.66
		c0-118.47,0-343.66,0-343.66L511.49,62.92z M511.49,680.11L511.49,680.11c-30.99,0-56.11-25.12-56.11-56.11v0
		c0-30.99,25.12-56.11,56.11-56.11h0c30.99,0,56.11,25.12,56.11,56.11v0C567.6,654.99,542.48,680.11,511.49,680.11z M567.6,511.79
		H455.38V231.25H567.6V511.79z"/>
	<g>
		<path d="M511.49,960.65c-216.19,0-448.87-43.89-448.87-140.27c0-38.03,34.63-69.59,102.9-93.81c14.55-5.21,30.6,2.47,35.81,17.1
			c5.18,14.58-2.47,30.63-17.07,35.83c-54.41,19.29-65.53,37.15-65.53,40.88c0,25.15,133.61,84.16,392.76,84.16
			c259.12,0,392.76-59.01,392.76-84.16c0-3.89-11.78-22.52-69.37-42.3c-14.68-5.04-22.47-20.99-17.42-35.62
			c5.04-14.68,20.88-22.52,35.62-17.42c71.18,24.44,107.29,56.55,107.29,95.34C960.35,916.76,727.7,960.65,511.49,960.65z"/>
	</g>
</g>
</svg>
