<?xml version="1.0" encoding="utf-8"?>
<!-- Generator: Adobe Illustrator 23.0.2, SVG Export Plug-In . SVG Version: 6.00 Build 0)  -->
<svg version="1.1" id="图层_1" xmlns="http://www.w3.org/2000/svg" xmlns:xlink="http://www.w3.org/1999/xlink" x="0px" y="0px"
	 viewBox="0 0 1024 1024" style="enable-background:new 0 0 1024 1024;" xml:space="preserve">
<style type="text/css">
	.st0{display:none;fill:#666666;}
	.st1{display:none;}
	.st2{display:inline;}
</style>
<path class="st0" d="M960.35-27.21c-247.87,0-448.81,200.94-448.81,448.81s200.94,448.81,448.81,448.81s448.81-200.94,448.81-448.81
	S1208.22-27.21,960.35-27.21z M1128.52,680.38l-168.17-88.41l-168.17,88.41l32.12-187.26L688.25,360.51l188.02-27.32l84.08-170.37
	l84.08,170.37l188.02,27.32l-136.05,132.62L1128.52,680.38z"/>
<g class="st1">
	<path class="st2" d="M511.77,623.4c154.49,0,279.73-125.24,279.73-279.73S666.26,63.95,511.77,63.95S232.05,189.18,232.05,343.67
		S357.28,623.4,511.77,623.4z M353.54,185.44c42.27-42.27,98.46-65.54,158.24-65.54c59.77,0,115.97,23.28,158.24,65.54
		c42.27,42.27,65.54,98.46,65.54,158.24c0,59.77-23.28,115.97-65.54,158.24c-42.27,42.27-98.46,65.54-158.24,65.54
		c-59.77,0-115.97-23.28-158.24-65.54c-42.27-42.27-65.54-98.46-65.54-158.24C287.99,283.9,311.27,227.7,353.54,185.44z"/>
	<path class="st2" d="M772.85,679.34H250.7c-102.99,0-186.48,83.49-186.48,186.48v0c0,51.5,41.75,93.24,93.24,93.24h708.64
		c51.5,0,93.24-41.75,93.24-93.24v0C959.33,762.83,875.84,679.34,772.85,679.34z M866.09,903.12H157.45
		c-20.57,0-37.3-16.73-37.3-37.3c0-34.87,13.58-67.65,38.23-92.3c24.66-24.66,57.44-38.23,92.3-38.23h522.15
		c34.87,0,67.65,13.58,92.3,38.23c24.66,24.66,38.23,57.44,38.23,92.3C903.39,886.39,886.66,903.12,866.09,903.12z"/>
</g>
<g>
	<path d="M680.16,512c61.81,0,111.92-50.11,111.92-111.92s-50.1-111.92-111.92-111.92c-61.81,0-111.92,50.11-111.92,111.92
		S618.35,512,680.16,512z M680.16,344.13c30.85,0,55.96,25.1,55.96,55.96s-25.1,55.96-55.96,55.96c-30.85,0-55.96-25.1-55.96-55.96
		S649.3,344.13,680.16,344.13z"/>
	<path d="M785.86,567.96H574.46c-34.34,0-62.18,27.84-62.18,62.17v74.61c0,17.17,13.92,31.09,31.09,31.09h273.57
		c17.17,0,31.09-13.92,31.09-31.09v-74.61C848.03,595.79,820.19,567.96,785.86,567.96z M792.07,679.87H568.24v-49.74
		c0-3.43,2.79-6.22,6.22-6.22h211.39c3.43,0,6.22,2.79,6.22,6.22V679.87z"/>
	<path d="M848.03,120.3H176.54c-61.81,0-111.92,50.11-111.92,111.92v559.58c0,61.81,50.11,111.92,111.92,111.92h671.49
		c61.81,0,111.92-50.11,111.92-111.92V232.21C959.94,170.4,909.84,120.3,848.03,120.3z M903.99,791.79
		c0,30.85-25.1,55.96-55.96,55.96H176.54c-30.85,0-55.96-25.1-55.96-55.96V232.21c0-30.85,25.1-55.96,55.96-55.96h671.49
		c30.85,0,55.96,25.1,55.96,55.96V791.79z"/>
	<path d="M372.39,344.13H260.47c-15.45,0-27.98,12.52-27.98,27.98c0,15.45,12.53,27.98,27.98,27.98h111.92
		c15.45,0,27.98-12.53,27.98-27.98C400.37,356.65,387.84,344.13,372.39,344.13z"/>
	<path d="M372.39,623.92H260.47c-15.45,0-27.98,12.52-27.98,27.98c0,15.45,12.53,27.98,27.98,27.98h111.92
		c15.45,0,27.98-12.53,27.98-27.98C400.37,636.44,387.84,623.92,372.39,623.92z"/>
</g>
</svg>
