<?xml version="1.0" encoding="utf-8"?>
<!-- Generator: Adobe Illustrator 23.1.1, SVG Export Plug-In . SVG Version: 6.00 Build 0)  -->
<svg version="1.1" id="图层_1" xmlns="http://www.w3.org/2000/svg" xmlns:xlink="http://www.w3.org/1999/xlink" x="0px" y="0px"
	 viewBox="0 0 1024 1024" style="enable-background:new 0 0 1024 1024;" xml:space="preserve">
<style type="text/css">
	.st0{display:none;fill:#666666;}
</style>
<path class="st0" d="M511.5,62.8c-247.9,0-448.8,200.9-448.8,448.8s200.9,448.8,448.8,448.8s448.8-200.9,448.8-448.8
	S759.3,62.8,511.5,62.8z M679.6,770.4L511.5,682l-168.2,88.4l32.1-187.3L239.4,450.5l188-27.3l84.1-170.4l84.1,170.4l188,27.3
	L647.5,583.1L679.6,770.4z"/>
<g>
	<path d="M903,751.9H121c-30.8,0-55.9,28.5-55.9,63.7c0,35.2,25,63.7,55.9,63.7h782c30.8,0,55.9-28.5,55.9-63.7
		C958.8,780.4,933.8,751.9,903,751.9z"/>
	<path d="M923.3,679.5c2.8-19.5,4.7-39.2,4.7-59.4c0-165.9-97.3-308.6-237.7-375.4v316h-59.4V162.9c-37.7-11.4-77.4-18.2-118.9-18.2
		s-81.1,6.8-118.9,18.2v397.8h-59.4v-316C193.3,311.5,96,454.2,96,620.1c0,20.2,1.9,40,4.7,59.4H923.3z"/>
</g>
</svg>
