<?xml version="1.0" encoding="utf-8"?>
<!-- Generator: Adobe Illustrator 23.1.1, SVG Export Plug-In . SVG Version: 6.00 Build 0)  -->
<svg version="1.1" id="图层_1" xmlns="http://www.w3.org/2000/svg" xmlns:xlink="http://www.w3.org/1999/xlink" x="0px" y="0px"
	 viewBox="0 0 1024 1024" style="enable-background:new 0 0 1024 1024;" xml:space="preserve">
<style type="text/css">
	.st0{display:none;fill:#666666;}
</style>
<path class="st0" d="M511.46,62.79c-247.87,0-448.81,200.94-448.81,448.81s200.94,448.81,448.81,448.81S960.27,759.47,960.27,511.6
	S759.33,62.79,511.46,62.79z M679.63,770.38l-168.17-88.41L343.3,770.38l32.12-187.26L239.36,450.51l188.02-27.32l84.08-170.37
	l84.08,170.37l188.02,27.32L647.51,583.12L679.63,770.38z"/>
<g>
	<circle cx="512" cy="512" r="96.21"/>
	<path d="M896.82,447.86c0-212.19-172.63-384.82-384.82-384.82S127.18,235.67,127.18,447.86c0,162.76,101.73,301.92,244.82,358.07
		l-54.53,90.89h-62.02v64.14h513.1v-64.14h-62.02L652,805.93C795.09,749.78,896.82,610.63,896.82,447.86z M512,119.16
		c18.82,0,37.15,1.93,55.13,4.9c-2.6,28.58-25.87,51.22-55.13,51.22s-52.53-22.64-55.13-51.22
		C474.85,121.09,493.18,119.16,512,119.16z M392.26,896.82l43.1-71.85c24.78,5.03,50.4,7.71,76.63,7.71
		c26.23,0,51.86-2.68,76.63-7.71l43.1,71.85H392.26z M512,672.34c-88.41,0-160.34-71.93-160.34-160.34
		c0-88.41,71.94-160.35,160.34-160.35S672.34,423.59,672.34,512C672.34,600.41,600.41,672.34,512,672.34z"/>
</g>
</svg>
