<?xml version="1.0" encoding="utf-8"?>
<!-- Generator: Adobe Illustrator 24.0.1, SVG Export Plug-In . SVG Version: 6.00 Build 0)  -->
<svg version="1.1" id="图层_1" xmlns="http://www.w3.org/2000/svg" xmlns:xlink="http://www.w3.org/1999/xlink" x="0px" y="0px"
	 viewBox="0 0 1024 1024" style="enable-background:new 0 0 1024 1024;" xml:space="preserve">
<style type="text/css">
	.st0{display:none;fill:#666666;}
	.st1{display:none;}
	.st2{display:inline;}
</style>
<path class="st0" d="M511.46,62.79c-247.87,0-448.81,200.94-448.81,448.81s200.94,448.81,448.81,448.81S960.27,759.47,960.27,511.6
	S759.33,62.79,511.46,62.79z M679.63,770.38l-168.17-88.41L343.3,770.38l32.12-187.26L239.36,450.51l188.02-27.32l84.08-170.37
	l84.08,170.37l188.02,27.32L647.51,583.12L679.63,770.38z"/>
<g class="st1">
	<circle class="st2" cx="512" cy="344.38" r="279.36"/>
	<path class="st2" d="M772.74,679.62H251.26C148.4,679.62,65.02,763,65.02,865.86c0,51.43,41.69,93.12,93.12,93.12h707.72
		c51.43,0,93.12-41.69,93.12-93.12C958.98,763,875.6,679.62,772.74,679.62z"/>
</g>
<g class="st1">
	<path class="st2" d="M925.78,271.53L540.38,99.69c-8.88-3.96-18.63-5.94-28.38-5.94s-19.5,1.98-28.38,5.94L98.22,271.53
		c-43.13,19.23-43.13,71.35,0,90.58l385.39,171.84c8.88,3.96,18.63,5.94,28.38,5.94s19.5-1.98,28.38-5.94l361.98-161.4v250.98
		c0,15.4,12.48,27.88,27.88,27.88c15.4,0,27.88-12.48,27.88-27.88V344.7c0-4.48-1.29-8.54-3.16-12.29
		C963.27,310.22,953.75,284,925.78,271.53z"/>
	<path class="st2" d="M512,623.53c-13.41,0-26.82-2.72-39.03-8.17L177.4,483.58v335.13c0,61.6,149.8,111.53,334.6,111.53
		s334.6-49.94,334.6-111.53V483.58L551.03,615.37C538.82,620.81,525.41,623.53,512,623.53z"/>
</g>
<path d="M792.67,568.13V343.6l-252.61-93.56v-74.84H680.4V62.92H540.07H512h-28.07v187.11L231.33,343.6v224.54H62.92v392.94h224.54
	h112.27h56.13V736.54c0-31,25.13-56.13,56.13-56.13s56.13,25.13,56.13,56.13v224.54h56.13h56.13h280.67V568.13H792.67z M512,512
	c-31,0-56.13-25.13-56.13-56.13c0-31,25.13-56.13,56.13-56.13s56.13,25.13,56.13,56.13C568.13,486.87,543,512,512,512z"/>
</svg>
