<?xml version="1.0" encoding="utf-8"?>
<!-- Generator: Adobe Illustrator 24.0.1, SVG Export Plug-In . SVG Version: 6.00 Build 0)  -->
<svg version="1.1" id="图层_1" xmlns="http://www.w3.org/2000/svg" xmlns:xlink="http://www.w3.org/1999/xlink" x="0px" y="0px"
	 viewBox="0 0 22 22" style="enable-background:new 0 0 22 22;" xml:space="preserve">
<style type="text/css">
	.st0{fill:#54D1FF;}
</style>
<path class="st0" d="M20,20V7.25C20,6.56,19.44,6,18.75,6H15V2c0-1.1-0.9-2-2-2H4C2.9,0,2,0.9,2,2v18H0v2h2h11h2h5h2v-2H20z M4,20
	l0-3h6v-2H4l0-3h6v-2H4l0-3h6V5H4l0-3h9l0,0v5.25V20H4z M15,20V8h3v12H15z"/>
</svg>
