<?xml version="1.0" encoding="utf-8"?>
<!-- Generator: Adobe Illustrator 24.0.1, SVG Export Plug-In . SVG Version: 6.00 Build 0)  -->
<svg version="1.1" id="图层_1" xmlns="http://www.w3.org/2000/svg" xmlns:xlink="http://www.w3.org/1999/xlink" x="0px" y="0px"
	 viewBox="0 0 14 14" style="enable-background:new 0 0 14 14;" xml:space="preserve">
<g>
	<g>
		<path d="M11.29,13.75H2.71c-1.22,0-2.21-0.97-2.21-2.17V7.25c0-0.28,0.22-0.5,0.5-0.5s0.5,0.22,0.5,0.5v4.33
			c0,0.64,0.54,1.17,1.21,1.17h8.57c0.67,0,1.21-0.52,1.21-1.17V7.25c0-0.28,0.22-0.5,0.5-0.5s0.5,0.22,0.5,0.5v4.33
			C13.5,12.78,12.51,13.75,11.29,13.75z"/>
	</g>
	<g>
		<path d="M10.18,3.22L7.35,0.4c-0.05-0.05-0.1-0.08-0.16-0.11c-0.12-0.05-0.26-0.05-0.38,0C6.75,0.31,6.7,0.35,6.65,0.39
			c0,0,0,0,0,0L3.82,3.22c-0.2,0.2-0.2,0.51,0,0.71s0.51,0.2,0.71,0L6.5,1.96v8.79c0,0.28,0.22,0.5,0.5,0.5s0.5-0.22,0.5-0.5V1.96
			l1.97,1.97c0.2,0.2,0.51,0.2,0.71,0C10.38,3.74,10.38,3.42,10.18,3.22z"/>
	</g>
</g>
</svg>
