<?xml version="1.0" encoding="utf-8"?>
<!-- Generator: Adobe Illustrator 24.0.1, SVG Export Plug-In . SVG Version: 6.00 Build 0)  -->
<svg version="1.1" id="图层_1" xmlns="http://www.w3.org/2000/svg" xmlns:xlink="http://www.w3.org/1999/xlink" x="0px" y="0px"
	 viewBox="0 0 1024 1024" style="enable-background:new 0 0 1024 1024;" xml:space="preserve">
<style type="text/css">
	.st0{display:none;fill:#666666;}
</style>
<path class="st0" d="M511.46,62.79c-247.87,0-448.81,200.94-448.81,448.81s200.94,448.81,448.81,448.81S960.27,759.47,960.27,511.6
	S759.33,62.79,511.46,62.79z M679.63,770.38l-168.17-88.41L343.3,770.38l32.12-187.26L239.36,450.51l188.02-27.32l84.08-170.37
	l84.08,170.37l188.02,27.32L647.51,583.12L679.63,770.38z"/>
<path d="M952.88,811.98L564.65,150.24c-11.79-20.1-32.22-30.15-52.65-30.15s-40.86,10.05-52.65,30.15L71.12,811.98
	c-23.87,40.69,5.47,91.93,52.65,91.93h776.47C947.42,903.91,976.76,852.67,952.88,811.98z M512,819.5
	c-31.08,0-56.27-25.2-56.27-56.27c0-31.08,25.19-56.27,56.27-56.27s56.27,25.19,56.27,56.27C568.27,794.3,543.08,819.5,512,819.5z
	 M568.27,566.27c0,31.08-25.19,56.27-56.27,56.27s-56.27-25.2-56.27-56.27V341.18c0-31.08,25.19-56.27,56.27-56.27
	s56.27,25.19,56.27,56.27V566.27z"/>
</svg>
