<svg xmlns="http://www.w3.org/2000/svg" viewBox="0 0 14 14" class="design-iconfont">
  <g fill="#FFF" fill-rule="evenodd">
    <path d="M6,0 C8.209139,0 10,1.790861 10,4 C10,6.209139 8.209139,8 6,8 C3.790861,8 2,6.209139 2,4 C2,1.790861 3.790861,0 6,0 Z M6,1 C4.34314575,1 3,2.34314575 3,4 C3,5.65685425 4.34314575,7 6,7 C7.65685425,7 9,5.65685425 9,4 C9,2.34314575 7.65685425,1 6,1 Z" fill-rule="nonzero"/>
    <path d="M9 10H14V11H9z"/>
    <path d="M11 8H12V13H11z"/>
    <path d="M6,7 C7.33065271,7 8.56013417,7.43316562 9.55512873,8.16618122 L8.91820407,8.93947922 C8.09699222,8.34825187 7.0891654,8 6,8 C3.23857625,8 1,10.2385763 1,13 L0,13 C0,9.6862915 2.6862915,7 6,7 Z" fill-rule="nonzero"/>
  </g>
</svg>
