<svg xmlns="http://www.w3.org/2000/svg" viewBox="0 0 24 24" class="design-iconfont">
  <path d="M19,13 C20.1045695,13 21,13.8954305 21,15 L21,19 C21,20.1045695 20.1045695,21 19,21 L5,21 C3.8954305,21 3,20.1045695 3,19 L3,15 C3,13.8954305 3.8954305,13 5,13 L19,13 Z M13,16 L7,16 C6.44771525,16 6,16.4477153 6,17 C6,17.5522847 6.44771525,18 7,18 L7,18 L13,18 C13.5522847,18 14,17.5522847 14,17 C14,16.4477153 13.5522847,16 13,16 L13,16 Z M19,3 C20.1045695,3 21,3.8954305 21,5 L21,9 C21,10.1045695 20.1045695,11 19,11 L5,11 C3.8954305,11 3,10.1045695 3,9 L3,5 C3,3.8954305 3.8954305,3 5,3 L19,3 Z M13,6 L7,6 C6.44771525,6 6,6.44771525 6,7 C6,7.55228475 6.44771525,8 7,8 L7,8 L13,8 C13.5522847,8 14,7.55228475 14,7 C14,6.44771525 13.5522847,6 13,6 L13,6 Z" fill="currentColor" fill-rule="evenodd"/>
</svg>
