<?xml version="1.0" encoding="utf-8"?>
<!-- Generator: Adobe Illustrator 23.0.2, SVG Export Plug-In . SVG Version: 6.00 Build 0)  -->
<svg version="1.1" id="图层_1" xmlns="http://www.w3.org/2000/svg" xmlns:xlink="http://www.w3.org/1999/xlink" x="0px" y="0px"
	 viewBox="0 0 1024 1024" style="enable-background:new 0 0 1024 1024;" xml:space="preserve">
<style type="text/css">
	.st0{display:none;fill:#666666;}
	.st1{display:none;}
	.st2{display:inline;}
</style>
<path class="st0" d="M511.46,62.79c-247.87,0-448.81,200.94-448.81,448.81s200.94,448.81,448.81,448.81S960.27,759.47,960.27,511.6
	S759.33,62.79,511.46,62.79z M679.63,770.38l-168.17-88.41L343.3,770.38l32.12-187.26L239.36,450.51l188.02-27.32l84.08-170.37
	l84.08,170.37l188.02,27.32L647.51,583.12L679.63,770.38z"/>
<g class="st1">
	<path class="st2" d="M895.87,64.15H128.13c-35.34,0-63.98,28.64-63.98,63.98v255.92c0,35.33,28.64,63.98,63.98,63.98h767.75
		c35.34,0,63.98-28.65,63.98-63.98V128.13C959.85,92.79,931.21,64.15,895.87,64.15z M895.87,384.04H128.13V128.13h767.75V384.04z"/>
	<rect x="192.11" y="192.11" class="st2" width="63.98" height="127.96"/>
	<rect x="192.11" y="639.96" class="st2" width="63.98" height="127.96"/>
	<path class="st2" d="M64.15,575.98v255.92c0,35.33,28.64,63.98,63.98,63.98h255.92v-63.98H128.13V575.98H512V512H128.13
		C92.79,512,64.15,540.64,64.15,575.98z"/>
	<path class="st2" d="M671.95,512c-17.67,0-31.99,14.32-31.99,31.99v264.49l-68.27-118.25c-8.83-15.3-28.4-20.54-43.7-11.71
		c-15.3,8.83-20.54,28.4-11.71,43.7l127.96,221.63c0.69,1.2,1.82,1.91,2.63,2.98c1.34,1.77,2.65,3.45,4.33,4.9
		c1.56,1.35,3.23,2.36,5,3.37c1.77,1.03,3.48,1.98,5.45,2.66c2.09,0.72,4.18,1.02,6.38,1.29c1.34,0.17,2.53,0.79,3.92,0.79
		c0.68,0,1.24-0.34,1.91-0.39c2.1-0.12,4.1-0.7,6.18-1.25c2.12-0.57,4.18-1.08,6.11-2.05c0.58-0.29,1.23-0.27,1.8-0.61
		c1.18-0.68,1.87-1.78,2.93-2.59c1.8-1.36,3.5-2.69,4.98-4.4c1.34-1.55,2.32-3.19,3.33-4.94c1.04-1.78,2-3.51,2.68-5.49
		c0.72-2.09,1.01-4.19,1.29-6.38c0.17-1.34,0.79-2.52,0.79-3.91V543.99C703.94,526.32,689.61,512,671.95,512z"/>
	<path class="st2" d="M827.6,528c-0.69-1.2-1.82-1.91-2.63-2.98c-1.34-1.77-2.65-3.45-4.33-4.9c-1.56-1.35-3.23-2.36-5-3.37
		c-1.77-1.03-3.48-1.98-5.45-2.66c-2.09-0.72-4.18-1.02-6.38-1.29c-1.34-0.17-2.53-0.79-3.92-0.79c-0.68,0-1.24,0.34-1.91,0.39
		c-2.1,0.12-4.1,0.7-6.18,1.25c-2.12,0.57-4.18,1.08-6.11,2.05c-0.58,0.29-1.23,0.27-1.8,0.61c-1.18,0.68-1.87,1.78-2.93,2.59
		c-1.8,1.36-3.5,2.69-4.98,4.4c-1.34,1.55-2.32,3.19-3.33,4.94c-1.04,1.78-2,3.51-2.68,5.49c-0.72,2.09-1.01,4.19-1.29,6.38
		c-0.17,1.34-0.79,2.52-0.79,3.91v383.87c0,17.67,14.32,31.99,31.99,31.99s31.99-14.32,31.99-31.99V663.37l68.27,118.25
		c8.83,15.3,28.4,20.54,43.7,11.71c15.3-8.83,20.54-28.4,11.71-43.7L827.6,528z"/>
</g>
<path class="st1" d="M570.58,513.22l345.49-345.49c15.9-15.9,15.9-41.68,0-57.58l0,0c-15.9-15.9-41.68-15.9-57.58,0L513,455.64
	L167.51,110.15c-15.9-15.9-41.68-15.9-57.58,0l0,0c-15.9,15.9-15.9,41.68,0,57.58l345.49,345.49L109.93,858.71
	c-15.9,15.9-15.9,41.68,0,57.58l0,0c15.9,15.9,41.68,15.9,57.58,0L513,570.8l345.49,345.49c15.9,15.9,41.68,15.9,57.58,0l0,0
	c15.9-15.9,15.9-41.68,0-57.58L570.58,513.22z"/>
<path class="st1" d="M578.84,512l334.19-334.19c18.46-18.46,18.46-48.38,0-66.84c-18.46-18.46-48.38-18.46-66.84,0L512,445.16
	L177.81,110.97c-18.46-18.46-48.38-18.46-66.84,0c-18.46,18.46-18.46,48.38,0,66.84L445.16,512L110.98,846.19
	c-18.46,18.46-18.46,48.38,0,66.84c18.46,18.46,48.38,18.46,66.84,0L512,578.84l334.19,334.19c18.46,18.46,48.38,18.46,66.84,0
	c18.46-18.46,18.46-48.38,0-66.84L578.84,512z"/>
<g>
	<g>
		<path d="M541.44,64.34c-12.08,0-24.16,4.61-33.37,13.82L107.6,478.63c-18.43,18.43-18.43,48.32,0,66.74l400.47,400.47
			c9.22,9.22,21.29,13.82,33.37,13.82c12.08,0,24.16-4.61,33.37-13.82c18.43-18.43,18.43-48.32,0-66.74L207.72,512l367.1-367.1
			c18.43-18.43,18.43-48.31,0-66.74C565.6,68.94,553.52,64.34,541.44,64.34L541.44,64.34z"/>
	</g>
	<g>
		<path d="M883.03,64.34c-12.08,0-24.16,4.61-33.37,13.82L449.19,478.63c-18.43,18.43-18.43,48.32,0,66.74l400.47,400.47
			c9.22,9.22,21.29,13.82,33.37,13.82c12.08,0,24.16-4.61,33.37-13.82c18.43-18.43,18.43-48.32,0-66.74L549.3,512l367.1-367.1
			c18.43-18.43,18.43-48.31,0-66.74C907.19,68.94,895.11,64.34,883.03,64.34L883.03,64.34z"/>
	</g>
</g>
</svg>
