<svg xmlns="http://www.w3.org/2000/svg" viewBox="0 0 14 14" class="design-iconfont">
  <g fill="currentColor" fill-rule="evenodd">
    <path d="M7,11 C7,11.553 6.552,12 6,12 C5.448,12 5,11.553 5,11 L5,9 C5,8.447 5.448,8 6,8 C6.552,8 7,8.447 7,9 L7,11 Z M10.114,6 L1.886,6 C0.844,6 0,6.844 0,7.886 L0,12.114 C0,13.156 0.844,14 1.886,14 L10.114,14 C11.156,14 12,13.156 12,12.114 L12,7.886 C12,6.844 11.156,6 10.114,6 L10.114,6 Z" transform="translate(1)"/>
    <path d="M2,7 L2,5 C2,2.794 3.794,1 6,1 C8.206,1 10,2.794 10,5 L10,7 L11,7 L11,5 C11,2.238 8.761,0 6,0 C3.239,0 1,2.238 1,5 L1,7 L2,7 Z" transform="translate(1)"/>
  </g>
</svg>
