<svg xmlns="http://www.w3.org/2000/svg" xmlns:xlink="http://www.w3.org/1999/xlink" viewBox="0 0 14 14" class="design-iconfont">
  <defs>
    <path id="2gxs56ub2a" d="M0 0L13.9999 0 13.9999 5 0 5z"/>
  </defs>
  <g fill="none" fill-rule="evenodd">
    <path d="M10.9999,4 C10.9999,6.209 9.2089,8 6.9999,8 C4.7909,8 2.9999,6.209 2.9999,4 C2.9999,1.791 4.7909,0 6.9999,0 C9.2089,0 10.9999,1.791 10.9999,4" fill="currentColor"/>
    <g transform="translate(0 9)">
      <mask id="x8m2x42e0b" fill="#fff">
        <use xlink:href="#2gxs56ub2a"/>
      </mask>
      <path d="M12.245,5 L1.755,5 C0.786,5 0,4.215 0,3.245 C0,1.453 1.453,0 3.245,0 L10.755,0 C12.547,0 14,1.453 14,3.245 C14,4.215 13.214,5 12.245,5" fill="currentColor" mask="url(#x8m2x42e0b)"/>
    </g>
  </g>
</svg>
