<?xml version="1.0" encoding="utf-8"?>
<!-- Generator: Adobe Illustrator 23.0.2, SVG Export Plug-In . SVG Version: 6.00 Build 0)  -->
<svg version="1.1" id="图层_1" xmlns="http://www.w3.org/2000/svg" xmlns:xlink="http://www.w3.org/1999/xlink" x="0px" y="0px"
	 viewBox="0 0 1024 1024" style="enable-background:new 0 0 1024 1024;" xml:space="preserve">
<style type="text/css">
	.st0{display:none;fill:#666666;}
</style>
<path class="st0" d="M511.46,62.79c-247.87,0-448.81,200.94-448.81,448.81s200.94,448.81,448.81,448.81S960.27,759.47,960.27,511.6
	S759.33,62.79,511.46,62.79z M679.63,770.38l-168.17-88.41L343.3,770.38l32.12-187.26L239.36,450.51l188.02-27.32l84.08-170.37
	l84.08,170.37l188.02,27.32L647.51,583.12L679.63,770.38z"/>
<path d="M639.96,64.16h-63.98H256.09c-70.67,0-127.96,57.28-127.96,127.96v639.78c0,70.67,57.29,127.96,127.96,127.96h511.82
	c70.67,0,127.96-57.29,127.96-127.96V384.04v-63.98L639.96,64.16z M805.39,320.07H703.93c-35.28,0-63.98-28.7-63.98-63.98V154.63
	L805.39,320.07z M831.89,831.89c0,35.28-28.7,63.98-63.98,63.98H256.09c-35.28,0-63.98-28.7-63.98-63.98V192.11
	c0-35.28,28.7-63.98,63.98-63.98h319.89v127.96c0,70.67,57.29,127.96,127.96,127.96h127.96V831.89z"/>
</svg>
