<svg xmlns="http://www.w3.org/2000/svg" viewBox="0 0 14 14" class="design-iconfont">
  <g fill="currentColor" fill-rule="evenodd">
    <path d="M12,1 C12.5522847,1 13,1.44771525 13,2 L13,5 C13,5.55228475 12.5522847,6 12,6 L2,6 C1.44771525,6 1,5.55228475 1,5 L1,2 C1,1.44771525 1.44771525,1 2,1 L12,1 Z M6.5,3 L2.5,3 C2.22385763,3 2,3.22385763 2,3.5 C2,3.77614237 2.22385763,4 2.5,4 L2.5,4 L6.5,4 C6.77614237,4 7,3.77614237 7,3.5 C7,3.22385763 6.77614237,3 6.5,3 L6.5,3 Z" transform="translate(-.0008)"/>
    <path d="M12,8 C12.5522847,8 13,8.44771525 13,9 L13,12 C13,12.5522847 12.5522847,13 12,13 L2,13 C1.44771525,13 1,12.5522847 1,12 L1,9 C1,8.44771525 1.44771525,8 2,8 L12,8 Z M6.5,10 L2.5,10 C2.22385763,10 2,10.2238576 2,10.5 C2,10.7761424 2.22385763,11 2.5,11 L2.5,11 L6.5,11 C6.77614237,11 7,10.7761424 7,10.5 C7,10.2238576 6.77614237,10 6.5,10 L6.5,10 Z" transform="translate(-.0008)"/>
  </g>
</svg>
