<svg xmlns="http://www.w3.org/2000/svg" viewBox="0 0 24 24" class="design-iconfont">
  <path d="M15.9052927,3 C16.1813791,3 16.4052646,3.22145095 16.4052646,3.49456842 L16.4052646,5.12628397 C16.4052646,5.39940144 16.1813791,5.62085239 15.9052927,5.62085239 L12.6177982,5.62085239 L12.6177982,6.59006992 L15.7603896,9.02517018 C15.912373,9.14487412 16.0022913,9.32559939 16.005362,9.51774935 L16.0054707,9.52804502 L16.0054707,13.0016294 L18.5500025,13.0016294 C19.3507891,13.0016294 20,13.6438586 20,14.4360337 L20,19.5654882 C20,20.3577707 19.3507891,21 18.5500025,21 L14.0086285,21 L14.0086285,17.582564 C14.0086285,16.5169489 13.0771993,15.6531611 12,15.6531611 C10.9229366,15.6531611 9.99984223,16.5169489 9.99984223,17.582564 L9.99984223,21 L5.44997036,21 C4.64921085,21 4,20.3577707 4,19.5654882 L4,14.4360337 C4,13.6438586 4.64921085,13.0016294 5.44997036,13.0016294 L8.00542992,13.0016294 L8.00542992,9.52804502 C8.00542992,9.33452409 8.09363629,9.15127195 8.24553821,9.02914866 L8.25369037,9.02275083 L11.3178004,6.60087634 L11.3178004,3.64284754 C11.3178004,3.28782172 11.608751,3 11.967745,3 C12.001821,3 12.0351362,3.0026344 12.0677448,3.00755374 C12.0966035,3.00252687 12.1258969,3 12.155299,3 L15.9052927,3 Z M12.0291868,10 C11.2006688,10 10.5291268,10.6715165 10.5291268,11.499952 C10.5291268,12.3283876 11.2006688,13 12.0291868,13 C12.8576089,13 13.5291268,12.3283876 13.5291268,11.499952 C13.5291268,10.6715165 12.8576089,10 12.0291868,10 Z" fill="currentColor" fill-rule="evenodd"/>
</svg>
