<?xml version="1.0" encoding="UTF-8"?>
<svg width="24px" height="24px" viewBox="0 0 24 24" version="1.1" xmlns="http://www.w3.org/2000/svg" xmlns:xlink="http://www.w3.org/1999/xlink">
    <title>图标/24pt/系统管理/选中</title>
    <g id="图标/24pt/系统管理/选中" stroke="none" stroke-width="1" fill="none" fill-rule="evenodd">
        <g id="编组" fill="currentColor">
            <path d="M18,4 C19.6568542,4 21,5.34314575 21,7 L21,15 C21,16.6568542 19.6568542,18 18,18 L6,18 C4.34314575,18 3,16.6568542 3,15 L3,7 C3,5.34314575 4.34314575,4 6,4 L18,4 Z M18,6 L6,6 C5.44771525,6 5,6.44771525 5,7 L5,7 L5,15 C5,15.5522847 5.44771525,16 6,16 L6,16 L18,16 C18.5522847,16 19,15.5522847 19,15 L19,15 L19,7 C19,6.44771525 18.5522847,6 18,6 L18,6 Z" id="形状结合"></path>
            <rect id="矩形" x="7" y="20" width="10" height="1" rx="0.5"></rect>
            <rect id="矩形" x="10" y="17" width="4" height="3"></rect>
        </g>
    </g>
</svg>
